<svg width="420" height="293" viewBox="0 0 420 293" fill="none" xmlns="http://www.w3.org/2000/svg">
<g filter="url(#filter0_d)">
<rect x="4" y="0.317993" width="412" height="284.532" rx="6" fill="#FEFEFE"/>
<path d="M189.888 125.536C183.936 125.536 178.656 124.16 174.048 121.408C169.504 118.592 165.92 114.56 163.296 109.312C160.736 104 159.456 97.696 159.456 90.4C159.456 83.104 160.736 76.832 163.296 71.584C165.92 66.272 169.504 62.24 174.048 59.488C178.656 56.672 183.936 55.264 189.888 55.264C195.84 55.264 201.088 56.672 205.632 59.488C210.24 62.24 213.824 66.272 216.384 71.584C219.008 76.832 220.32 83.104 220.32 90.4C220.32 97.696 219.008 104 216.384 109.312C213.824 114.56 210.24 118.592 205.632 121.408C201.088 124.16 195.84 125.536 189.888 125.536ZM189.888 107.392C195.008 107.392 197.568 101.728 197.568 90.4C197.568 79.072 195.008 73.408 189.888 73.408C184.768 73.408 182.208 79.072 182.208 90.4C182.208 101.728 184.768 107.392 189.888 107.392ZM256.859 56.8V124H234.203V73.888H222.683V56.8H256.859Z" fill="#EFF5F8"/>
<path d="M132.343 161.992C133.326 162.256 134.074 162.711 134.587 163.356C135.1 163.987 135.357 164.779 135.357 165.732C135.357 167.081 134.858 168.13 133.861 168.878C132.864 169.626 131.419 170 129.527 170H122.223V154.6H129.109C130.84 154.6 132.189 154.945 133.157 155.634C134.125 156.323 134.609 157.299 134.609 158.56C134.609 159.367 134.411 160.063 134.015 160.65C133.634 161.237 133.076 161.684 132.343 161.992ZM125.039 161.178H128.867C129.791 161.178 130.495 160.995 130.979 160.628C131.463 160.261 131.705 159.719 131.705 159C131.705 158.281 131.463 157.739 130.979 157.372C130.495 156.991 129.791 156.8 128.867 156.8H125.039V161.178ZM129.439 167.8C131.463 167.8 132.475 167.037 132.475 165.512C132.475 164.016 131.463 163.268 129.439 163.268H125.039V167.8H129.439ZM144.027 162.124C145.523 162.124 146.667 162.461 147.459 163.136C148.251 163.811 148.647 164.764 148.647 165.996C148.647 167.287 148.207 168.284 147.327 168.988C146.462 169.692 145.23 170.037 143.631 170.022L138.307 170V158.252H141.057V162.102L144.027 162.124ZM150.165 158.252H152.915V170H150.165V158.252ZM143.389 167.998C144.196 168.013 144.812 167.844 145.237 167.492C145.662 167.14 145.875 166.627 145.875 165.952C145.875 165.292 145.67 164.808 145.259 164.5C144.848 164.192 144.225 164.031 143.389 164.016L141.057 163.994V167.976L143.389 167.998ZM162.97 158.824C164.084 158.824 165.067 159.066 165.918 159.55C166.768 160.019 167.428 160.679 167.898 161.53C168.382 162.381 168.624 163.356 168.624 164.456C168.624 165.585 168.36 166.59 167.832 167.47C167.304 168.335 166.563 169.01 165.61 169.494C164.656 169.978 163.571 170.22 162.354 170.22C160.315 170.22 158.738 169.545 157.624 168.196C156.509 166.847 155.952 164.903 155.952 162.366C155.952 160.005 156.458 158.135 157.47 156.756C158.482 155.377 160.029 154.468 162.112 154.028L167.568 152.862L167.964 155.326L163.014 156.338C161.591 156.631 160.528 157.13 159.824 157.834C159.12 158.538 158.709 159.528 158.592 160.804C159.12 160.173 159.758 159.689 160.506 159.352C161.254 159 162.075 158.824 162.97 158.824ZM162.42 167.998C163.432 167.998 164.246 167.675 164.862 167.03C165.492 166.37 165.808 165.534 165.808 164.522C165.808 163.51 165.492 162.696 164.862 162.08C164.246 161.464 163.432 161.156 162.42 161.156C161.393 161.156 160.564 161.464 159.934 162.08C159.303 162.696 158.988 163.51 158.988 164.522C158.988 165.549 159.303 166.385 159.934 167.03C160.579 167.675 161.408 167.998 162.42 167.998ZM177.798 158.12C178.942 158.12 179.961 158.369 180.856 158.868C181.765 159.367 182.476 160.071 182.99 160.98C183.503 161.889 183.76 162.938 183.76 164.126C183.76 165.314 183.503 166.37 182.99 167.294C182.476 168.203 181.765 168.907 180.856 169.406C179.961 169.905 178.942 170.154 177.798 170.154C176.214 170.154 174.96 169.626 174.036 168.57V174.268H171.286V158.252H173.904V159.792C174.358 159.235 174.916 158.817 175.576 158.538C176.25 158.259 176.991 158.12 177.798 158.12ZM177.49 167.8C178.502 167.8 179.33 167.463 179.976 166.788C180.636 166.113 180.966 165.226 180.966 164.126C180.966 163.026 180.636 162.139 179.976 161.464C179.33 160.789 178.502 160.452 177.49 160.452C176.83 160.452 176.236 160.606 175.708 160.914C175.18 161.207 174.762 161.633 174.454 162.19C174.146 162.747 173.992 163.393 173.992 164.126C173.992 164.859 174.146 165.505 174.454 166.062C174.762 166.619 175.18 167.052 175.708 167.36C176.236 167.653 176.83 167.8 177.49 167.8ZM190.724 158.12C192.455 158.12 193.775 158.538 194.684 159.374C195.608 160.195 196.07 161.442 196.07 163.114V170H193.474V168.57C193.137 169.083 192.653 169.479 192.022 169.758C191.406 170.022 190.658 170.154 189.778 170.154C188.898 170.154 188.128 170.007 187.468 169.714C186.808 169.406 186.295 168.988 185.928 168.46C185.576 167.917 185.4 167.309 185.4 166.634C185.4 165.578 185.789 164.735 186.566 164.104C187.358 163.459 188.597 163.136 190.284 163.136H193.32V162.96C193.32 162.139 193.071 161.508 192.572 161.068C192.088 160.628 191.362 160.408 190.394 160.408C189.734 160.408 189.081 160.511 188.436 160.716C187.805 160.921 187.27 161.207 186.83 161.574L185.752 159.572C186.368 159.103 187.109 158.743 187.974 158.494C188.839 158.245 189.756 158.12 190.724 158.12ZM190.35 168.152C191.039 168.152 191.648 167.998 192.176 167.69C192.719 167.367 193.1 166.913 193.32 166.326V164.962H190.482C188.898 164.962 188.106 165.483 188.106 166.524C188.106 167.023 188.304 167.419 188.7 167.712C189.096 168.005 189.646 168.152 190.35 168.152ZM208.779 160.584H204.665V170H201.915V160.584H197.779V158.252H208.779V160.584ZM216.67 162.124C218.166 162.124 219.31 162.461 220.102 163.136C220.908 163.811 221.312 164.764 221.312 165.996C221.312 167.287 220.872 168.284 219.992 168.988C219.112 169.692 217.872 170.037 216.274 170.022L210.774 170V158.252H213.524V162.102L216.67 162.124ZM216.032 167.998C216.838 168.013 217.454 167.844 217.88 167.492C218.305 167.14 218.518 166.627 218.518 165.952C218.518 165.292 218.312 164.808 217.902 164.5C217.491 164.192 216.868 164.031 216.032 164.016L213.524 163.994V167.976L216.032 167.998ZM241.359 170V162.212L237.399 168.768H236.211L232.317 162.19V170H229.809V158.252H232.691L236.871 165.6L241.249 158.252H243.823L243.845 170H241.359ZM251.912 158.12C253.642 158.12 254.962 158.538 255.872 159.374C256.796 160.195 257.258 161.442 257.258 163.114V170H254.662V168.57C254.324 169.083 253.84 169.479 253.21 169.758C252.594 170.022 251.846 170.154 250.966 170.154C250.086 170.154 249.316 170.007 248.656 169.714C247.996 169.406 247.482 168.988 247.116 168.46C246.764 167.917 246.588 167.309 246.588 166.634C246.588 165.578 246.976 164.735 247.754 164.104C248.546 163.459 249.785 163.136 251.472 163.136H254.508V162.96C254.508 162.139 254.258 161.508 253.76 161.068C253.276 160.628 252.55 160.408 251.582 160.408C250.922 160.408 250.269 160.511 249.624 160.716C248.993 160.921 248.458 161.207 248.018 161.574L246.94 159.572C247.556 159.103 248.296 158.743 249.162 158.494C250.027 158.245 250.944 158.12 251.912 158.12ZM251.538 168.152C252.227 168.152 252.836 167.998 253.364 167.69C253.906 167.367 254.288 166.913 254.508 166.326V164.962H251.67C250.086 164.962 249.294 165.483 249.294 166.524C249.294 167.023 249.492 167.419 249.888 167.712C250.284 168.005 250.834 168.152 251.538 168.152ZM267.173 158.12C268.317 158.12 269.336 158.369 270.231 158.868C271.14 159.367 271.851 160.071 272.365 160.98C272.878 161.889 273.135 162.938 273.135 164.126C273.135 165.314 272.878 166.37 272.365 167.294C271.851 168.203 271.14 168.907 270.231 169.406C269.336 169.905 268.317 170.154 267.173 170.154C265.589 170.154 264.335 169.626 263.411 168.57V174.268H260.661V158.252H263.279V159.792C263.733 159.235 264.291 158.817 264.951 158.538C265.625 158.259 266.366 158.12 267.173 158.12ZM266.865 167.8C267.877 167.8 268.705 167.463 269.351 166.788C270.011 166.113 270.341 165.226 270.341 164.126C270.341 163.026 270.011 162.139 269.351 161.464C268.705 160.789 267.877 160.452 266.865 160.452C266.205 160.452 265.611 160.606 265.083 160.914C264.555 161.207 264.137 161.633 263.829 162.19C263.521 162.747 263.367 163.393 263.367 164.126C263.367 164.859 263.521 165.505 263.829 166.062C264.137 166.619 264.555 167.052 265.083 167.36C265.611 167.653 266.205 167.8 266.865 167.8ZM280.755 165.292H278.621V170H275.871V158.252H278.621V163.004H280.821L284.297 158.252H287.245L282.977 163.906L287.531 170H284.297L280.755 165.292ZM299.893 158.252L294.393 170.946C293.88 172.222 293.256 173.117 292.523 173.63C291.79 174.158 290.902 174.422 289.861 174.422C289.274 174.422 288.695 174.327 288.123 174.136C287.551 173.945 287.082 173.681 286.715 173.344L287.815 171.32C288.079 171.569 288.387 171.767 288.739 171.914C289.106 172.061 289.472 172.134 289.839 172.134C290.323 172.134 290.719 172.009 291.027 171.76C291.35 171.511 291.643 171.093 291.907 170.506L292.105 170.044L286.979 158.252H289.839L293.535 166.942L297.253 158.252H299.893Z" fill="#333333"/>
<path d="M122.947 206.144C123.683 206.325 124.259 206.656 124.675 207.136C125.102 207.616 125.315 208.192 125.315 208.864C125.315 209.515 125.113 210.085 124.707 210.576C124.302 211.067 123.763 211.445 123.091 211.712C122.419 211.968 121.689 212.096 120.899 212.096C120.153 212.096 119.417 211.979 118.691 211.744C117.977 211.499 117.331 211.136 116.755 210.656L117.187 209.808C117.678 210.224 118.238 210.544 118.867 210.768C119.497 210.981 120.131 211.088 120.771 211.088C121.379 211.088 121.939 210.992 122.451 210.8C122.963 210.608 123.369 210.336 123.667 209.984C123.977 209.621 124.131 209.195 124.131 208.704C124.131 208.053 123.875 207.552 123.363 207.2C122.851 206.848 122.131 206.672 121.203 206.672H118.803V205.712H121.139C121.929 205.712 122.542 205.547 122.979 205.216C123.427 204.875 123.651 204.405 123.651 203.808C123.651 203.147 123.369 202.629 122.803 202.256C122.238 201.872 121.529 201.68 120.675 201.68C120.142 201.68 119.603 201.76 119.059 201.92C118.515 202.069 117.998 202.299 117.507 202.608L117.107 201.632C118.217 200.971 119.417 200.64 120.707 200.64C121.465 200.64 122.158 200.763 122.787 201.008C123.417 201.253 123.913 201.605 124.275 202.064C124.649 202.523 124.835 203.061 124.835 203.68C124.835 204.277 124.67 204.795 124.339 205.232C124.009 205.659 123.545 205.963 122.947 206.144ZM133.343 207.648C134.485 207.915 135.055 208.603 135.055 209.712C135.055 210.448 134.783 211.013 134.239 211.408C133.695 211.803 132.885 212 131.807 212H127.983V203.584H131.695C132.655 203.584 133.407 203.771 133.951 204.144C134.495 204.517 134.767 205.051 134.767 205.744C134.767 206.203 134.639 206.597 134.383 206.928C134.138 207.248 133.791 207.488 133.343 207.648ZM129.087 207.328H131.615C132.266 207.328 132.762 207.205 133.103 206.96C133.455 206.715 133.631 206.357 133.631 205.888C133.631 205.419 133.455 205.067 133.103 204.832C132.762 204.597 132.266 204.48 131.615 204.48H129.087V207.328ZM131.759 211.104C132.485 211.104 133.029 210.987 133.391 210.752C133.754 210.517 133.935 210.149 133.935 209.648C133.935 209.147 133.77 208.779 133.439 208.544C133.109 208.299 132.586 208.176 131.871 208.176H129.087V211.104H131.759ZM141.19 212.08C140.379 212.08 139.648 211.899 138.998 211.536C138.347 211.163 137.835 210.651 137.462 210C137.088 209.349 136.902 208.613 136.902 207.792C136.902 206.971 137.088 206.235 137.462 205.584C137.835 204.933 138.347 204.427 138.998 204.064C139.648 203.701 140.379 203.52 141.19 203.52C142 203.52 142.731 203.701 143.382 204.064C144.032 204.427 144.539 204.933 144.902 205.584C145.275 206.235 145.462 206.971 145.462 207.792C145.462 208.613 145.275 209.349 144.902 210C144.539 210.651 144.032 211.163 143.382 211.536C142.731 211.899 142 212.08 141.19 212.08ZM141.19 211.072C141.787 211.072 142.32 210.939 142.79 210.672C143.27 210.395 143.643 210.005 143.91 209.504C144.176 209.003 144.31 208.432 144.31 207.792C144.31 207.152 144.176 206.581 143.91 206.08C143.643 205.579 143.27 205.195 142.79 204.928C142.32 204.651 141.787 204.512 141.19 204.512C140.592 204.512 140.054 204.651 139.574 204.928C139.104 205.195 138.731 205.579 138.454 206.08C138.187 206.581 138.054 207.152 138.054 207.792C138.054 208.432 138.187 209.003 138.454 209.504C138.731 210.005 139.104 210.395 139.574 210.672C140.054 210.939 140.592 211.072 141.19 211.072ZM147.889 203.584H149.025V207.312H154.321V203.584H155.457V212H154.321V208.288H149.025V212H147.889V203.584ZM158.686 203.584H159.822V210.272L165.438 203.584H166.446V212H165.31V205.312L159.71 212H158.686V203.584ZM175.622 204.592H172.438V212H171.302V204.592H168.118V203.584H175.622V204.592ZM184.234 208.144H177.194C177.258 209.019 177.594 209.728 178.202 210.272C178.81 210.805 179.578 211.072 180.506 211.072C181.028 211.072 181.508 210.981 181.946 210.8C182.383 210.608 182.762 210.331 183.082 209.968L183.722 210.704C183.348 211.152 182.879 211.493 182.314 211.728C181.759 211.963 181.146 212.08 180.474 212.08C179.61 212.08 178.842 211.899 178.17 211.536C177.508 211.163 176.991 210.651 176.618 210C176.244 209.349 176.058 208.613 176.058 207.792C176.058 206.971 176.234 206.235 176.586 205.584C176.948 204.933 177.439 204.427 178.058 204.064C178.687 203.701 179.391 203.52 180.17 203.52C180.948 203.52 181.647 203.701 182.266 204.064C182.884 204.427 183.37 204.933 183.722 205.584C184.074 206.224 184.25 206.96 184.25 207.792L184.234 208.144ZM180.17 204.496C179.359 204.496 178.676 204.757 178.122 205.28C177.578 205.792 177.268 206.464 177.194 207.296H183.162C183.087 206.464 182.772 205.792 182.218 205.28C181.674 204.757 180.991 204.496 180.17 204.496ZM186.844 212.08C186.61 212.08 186.407 211.995 186.236 211.824C186.076 211.653 185.996 211.445 185.996 211.2C185.996 210.955 186.076 210.752 186.236 210.592C186.407 210.421 186.61 210.336 186.844 210.336C187.079 210.336 187.282 210.421 187.452 210.592C187.623 210.752 187.708 210.955 187.708 211.2C187.708 211.445 187.623 211.653 187.452 211.824C187.282 211.995 187.079 212.08 186.844 212.08ZM206.247 200.8V212H205.111V203.04L200.711 210.576H200.151L195.751 203.088V212H194.615V200.8H195.591L200.455 209.104L205.271 200.8H206.247ZM213.285 206.56C214.341 206.571 215.146 206.805 215.701 207.264C216.255 207.723 216.533 208.384 216.533 209.248C216.533 210.144 216.234 210.832 215.637 211.312C215.039 211.792 214.186 212.027 213.077 212.016L209.749 212V203.584H210.885V206.528L213.285 206.56ZM217.941 203.584H219.077V212H217.941V203.584ZM213.013 211.152C213.791 211.163 214.378 211.008 214.773 210.688C215.178 210.357 215.381 209.877 215.381 209.248C215.381 208.629 215.183 208.171 214.789 207.872C214.394 207.573 213.802 207.419 213.013 207.408L210.885 207.376V211.12L213.013 211.152ZM234.051 203.584V212H232.915V204.592H227.635V212H226.499V203.584H234.051ZM240.752 212.08C239.941 212.08 239.211 211.899 238.56 211.536C237.909 211.163 237.397 210.651 237.024 210C236.651 209.349 236.464 208.613 236.464 207.792C236.464 206.971 236.651 206.235 237.024 205.584C237.397 204.933 237.909 204.427 238.56 204.064C239.211 203.701 239.941 203.52 240.752 203.52C241.563 203.52 242.293 203.701 242.944 204.064C243.595 204.427 244.101 204.933 244.464 205.584C244.837 206.235 245.024 206.971 245.024 207.792C245.024 208.613 244.837 209.349 244.464 210C244.101 210.651 243.595 211.163 242.944 211.536C242.293 211.899 241.563 212.08 240.752 212.08ZM240.752 211.072C241.349 211.072 241.883 210.939 242.352 210.672C242.832 210.395 243.205 210.005 243.472 209.504C243.739 209.003 243.872 208.432 243.872 207.792C243.872 207.152 243.739 206.581 243.472 206.08C243.205 205.579 242.832 205.195 242.352 204.928C241.883 204.651 241.349 204.512 240.752 204.512C240.155 204.512 239.616 204.651 239.136 204.928C238.667 205.195 238.293 205.579 238.016 206.08C237.749 206.581 237.616 207.152 237.616 207.792C237.616 208.432 237.749 209.003 238.016 209.504C238.293 210.005 238.667 210.395 239.136 210.672C239.616 210.939 240.155 211.072 240.752 211.072ZM256.86 203.584V212H255.82V205.344L252.412 210.976H251.9L248.492 205.328V212H247.452V203.584H248.604L252.172 209.648L255.804 203.584H256.86ZM263.565 212.08C262.754 212.08 262.023 211.899 261.373 211.536C260.722 211.163 260.21 210.651 259.837 210C259.463 209.349 259.277 208.613 259.277 207.792C259.277 206.971 259.463 206.235 259.837 205.584C260.21 204.933 260.722 204.427 261.373 204.064C262.023 203.701 262.754 203.52 263.565 203.52C264.375 203.52 265.106 203.701 265.757 204.064C266.407 204.427 266.914 204.933 267.277 205.584C267.65 206.235 267.837 206.971 267.837 207.792C267.837 208.613 267.65 209.349 267.277 210C266.914 210.651 266.407 211.163 265.757 211.536C265.106 211.899 264.375 212.08 263.565 212.08ZM263.565 211.072C264.162 211.072 264.695 210.939 265.165 210.672C265.645 210.395 266.018 210.005 266.285 209.504C266.551 209.003 266.685 208.432 266.685 207.792C266.685 207.152 266.551 206.581 266.285 206.08C266.018 205.579 265.645 205.195 265.165 204.928C264.695 204.651 264.162 204.512 263.565 204.512C262.967 204.512 262.429 204.651 261.949 204.928C261.479 205.195 261.106 205.579 260.829 206.08C260.562 206.581 260.429 207.152 260.429 207.792C260.429 208.432 260.562 209.003 260.829 209.504C261.106 210.005 261.479 210.395 261.949 210.672C262.429 210.939 262.967 211.072 263.565 211.072ZM277.344 208.256H275.52V212H274.384V208.256H272.56L269.984 212H268.624L271.648 207.664L268.864 203.584H270.096L272.56 207.28H274.384V203.584H275.52V207.28H277.344L279.824 203.584H281.056L278.272 207.68L281.296 212H279.936L277.344 208.256ZM290.249 208.144H283.209C283.273 209.019 283.609 209.728 284.217 210.272C284.825 210.805 285.593 211.072 286.521 211.072C287.044 211.072 287.524 210.981 287.961 210.8C288.399 210.608 288.777 210.331 289.097 209.968L289.737 210.704C289.364 211.152 288.895 211.493 288.329 211.728C287.775 211.963 287.161 212.08 286.489 212.08C285.625 212.08 284.857 211.899 284.185 211.536C283.524 211.163 283.007 210.651 282.633 210C282.26 209.349 282.073 208.613 282.073 207.792C282.073 206.971 282.249 206.235 282.601 205.584C282.964 204.933 283.455 204.427 284.073 204.064C284.703 203.701 285.407 203.52 286.185 203.52C286.964 203.52 287.663 203.701 288.281 204.064C288.9 204.427 289.385 204.933 289.737 205.584C290.089 206.224 290.265 206.96 290.265 207.792L290.249 208.144ZM286.185 204.496C285.375 204.496 284.692 204.757 284.137 205.28C283.593 205.792 283.284 206.464 283.209 207.296H289.177C289.103 206.464 288.788 205.792 288.233 205.28C287.689 204.757 287.007 204.496 286.185 204.496ZM302.188 203.584V212H301.148V205.344L297.74 210.976H297.228L293.82 205.328V212H292.78V203.584H293.932L297.5 209.648L301.132 203.584H302.188ZM136.765 229.648C137.906 229.915 138.477 230.603 138.477 231.712C138.477 232.448 138.205 233.013 137.661 233.408C137.117 233.803 136.306 234 135.229 234H131.405V225.584H135.117C136.077 225.584 136.829 225.771 137.373 226.144C137.917 226.517 138.189 227.051 138.189 227.744C138.189 228.203 138.061 228.597 137.805 228.928C137.56 229.248 137.213 229.488 136.765 229.648ZM132.509 229.328H135.037C135.688 229.328 136.184 229.205 136.525 228.96C136.877 228.715 137.053 228.357 137.053 227.888C137.053 227.419 136.877 227.067 136.525 226.832C136.184 226.597 135.688 226.48 135.037 226.48H132.509V229.328ZM135.181 233.104C135.906 233.104 136.45 232.987 136.813 232.752C137.176 232.517 137.357 232.149 137.357 231.648C137.357 231.147 137.192 230.779 136.861 230.544C136.53 230.299 136.008 230.176 135.293 230.176H132.509V233.104H135.181ZM144.035 225.52C145.134 225.52 145.977 225.797 146.563 226.352C147.15 226.896 147.443 227.707 147.443 228.784V234H146.355V232.688C146.099 233.125 145.721 233.467 145.219 233.712C144.729 233.957 144.142 234.08 143.459 234.08C142.521 234.08 141.774 233.856 141.219 233.408C140.665 232.96 140.387 232.368 140.387 231.632C140.387 230.917 140.643 230.341 141.155 229.904C141.678 229.467 142.505 229.248 143.635 229.248H146.307V228.736C146.307 228.011 146.105 227.461 145.699 227.088C145.294 226.704 144.702 226.512 143.923 226.512C143.39 226.512 142.878 226.603 142.387 226.784C141.897 226.955 141.475 227.195 141.123 227.504L140.611 226.656C141.038 226.293 141.55 226.016 142.147 225.824C142.745 225.621 143.374 225.52 144.035 225.52ZM143.635 233.184C144.275 233.184 144.825 233.04 145.283 232.752C145.742 232.453 146.083 232.027 146.307 231.472V230.096H143.667C142.227 230.096 141.507 230.597 141.507 231.6C141.507 232.091 141.694 232.48 142.067 232.768C142.441 233.045 142.963 233.184 143.635 233.184ZM159.876 225.584V234H158.836V227.344L155.428 232.976H154.916L151.508 227.328V234H150.468V225.584H151.62L155.188 231.648L158.82 225.584H159.876ZM172.656 229.648C173.797 229.915 174.368 230.603 174.368 231.712C174.368 232.448 174.096 233.013 173.552 233.408C173.008 233.803 172.197 234 171.12 234H167.296V225.584H171.008C171.968 225.584 172.72 225.771 173.264 226.144C173.808 226.517 174.08 227.051 174.08 227.744C174.08 228.203 173.952 228.597 173.696 228.928C173.45 229.248 173.104 229.488 172.656 229.648ZM168.4 229.328H170.928C171.578 229.328 172.074 229.205 172.416 228.96C172.768 228.715 172.944 228.357 172.944 227.888C172.944 227.419 172.768 227.067 172.416 226.832C172.074 226.597 171.578 226.48 170.928 226.48H168.4V229.328ZM171.072 233.104C171.797 233.104 172.341 232.987 172.704 232.752C173.066 232.517 173.248 232.149 173.248 231.648C173.248 231.147 173.082 230.779 172.752 230.544C172.421 230.299 171.898 230.176 171.184 230.176H168.4V233.104H171.072ZM180.566 228.56C181.622 228.571 182.427 228.805 182.982 229.264C183.537 229.723 183.814 230.384 183.814 231.248C183.814 232.144 183.515 232.832 182.918 233.312C182.321 233.792 181.467 234.027 180.358 234.016L177.03 234V225.584H178.166V228.528L180.566 228.56ZM185.222 225.584H186.358V234H185.222V225.584ZM180.294 233.152C181.073 233.163 181.659 233.008 182.054 232.688C182.459 232.357 182.662 231.877 182.662 231.248C182.662 230.629 182.465 230.171 182.07 229.872C181.675 229.573 181.083 229.419 180.294 229.408L178.166 229.376V233.12L180.294 233.152ZM193.673 225.792C194.451 225.792 195.145 225.968 195.753 226.32C196.371 226.661 196.851 227.147 197.193 227.776C197.534 228.395 197.705 229.104 197.705 229.904C197.705 230.725 197.523 231.456 197.161 232.096C196.809 232.725 196.313 233.216 195.673 233.568C195.033 233.92 194.297 234.096 193.465 234.096C192.067 234.096 190.985 233.605 190.217 232.624C189.449 231.643 189.065 230.288 189.065 228.56C189.065 226.757 189.406 225.376 190.089 224.416C190.782 223.456 191.859 222.805 193.321 222.464L197.097 221.6L197.289 222.64L193.737 223.456C192.531 223.723 191.646 224.197 191.081 224.88C190.515 225.552 190.206 226.549 190.153 227.872C190.494 227.221 190.969 226.715 191.577 226.352C192.185 225.979 192.883 225.792 193.673 225.792ZM193.497 233.152C194.083 233.152 194.606 233.019 195.065 232.752C195.534 232.475 195.897 232.091 196.153 231.6C196.419 231.109 196.553 230.555 196.553 229.936C196.553 229.317 196.425 228.773 196.169 228.304C195.913 227.835 195.55 227.472 195.081 227.216C194.622 226.949 194.094 226.816 193.497 226.816C192.899 226.816 192.366 226.949 191.897 227.216C191.438 227.472 191.075 227.835 190.809 228.304C190.553 228.773 190.425 229.317 190.425 229.936C190.425 230.555 190.553 231.109 190.809 231.6C191.075 232.091 191.443 232.475 191.913 232.752C192.382 233.019 192.91 233.152 193.497 233.152ZM204.475 225.52C205.265 225.52 205.979 225.701 206.619 226.064C207.259 226.416 207.761 226.917 208.123 227.568C208.486 228.219 208.667 228.96 208.667 229.792C208.667 230.635 208.486 231.381 208.123 232.032C207.761 232.683 207.259 233.189 206.619 233.552C205.99 233.904 205.275 234.08 204.475 234.08C203.793 234.08 203.174 233.941 202.619 233.664C202.075 233.376 201.627 232.96 201.275 232.416V237.104H200.139V225.584H201.227V227.248C201.569 226.693 202.017 226.267 202.571 225.968C203.137 225.669 203.771 225.52 204.475 225.52ZM204.395 233.072C204.982 233.072 205.515 232.939 205.995 232.672C206.475 232.395 206.849 232.005 207.115 231.504C207.393 231.003 207.531 230.432 207.531 229.792C207.531 229.152 207.393 228.587 207.115 228.096C206.849 227.595 206.475 227.205 205.995 226.928C205.515 226.651 204.982 226.512 204.395 226.512C203.798 226.512 203.259 226.651 202.779 226.928C202.31 227.205 201.937 227.595 201.659 228.096C201.393 228.587 201.259 229.152 201.259 229.792C201.259 230.432 201.393 231.003 201.659 231.504C201.937 232.005 202.31 232.395 202.779 232.672C203.259 232.939 203.798 233.072 204.395 233.072ZM213.957 225.52C215.056 225.52 215.899 225.797 216.485 226.352C217.072 226.896 217.365 227.707 217.365 228.784V234H216.277V232.688C216.021 233.125 215.643 233.467 215.141 233.712C214.651 233.957 214.064 234.08 213.381 234.08C212.443 234.08 211.696 233.856 211.141 233.408C210.587 232.96 210.309 232.368 210.309 231.632C210.309 230.917 210.565 230.341 211.077 229.904C211.6 229.467 212.427 229.248 213.557 229.248H216.229V228.736C216.229 228.011 216.027 227.461 215.621 227.088C215.216 226.704 214.624 226.512 213.845 226.512C213.312 226.512 212.8 226.603 212.309 226.784C211.819 226.955 211.397 227.195 211.045 227.504L210.533 226.656C210.96 226.293 211.472 226.016 212.069 225.824C212.667 225.621 213.296 225.52 213.957 225.52ZM213.557 233.184C214.197 233.184 214.747 233.04 215.205 232.752C215.664 232.453 216.005 232.027 216.229 231.472V230.096H213.589C212.149 230.096 211.429 230.597 211.429 231.6C211.429 232.091 211.616 232.48 211.989 232.768C212.363 233.045 212.885 233.184 213.557 233.184ZM226.309 226.592H223.125V234H221.989V226.592H218.805V225.584H226.309V226.592ZM231.568 228.56C232.624 228.571 233.424 228.805 233.968 229.264C234.523 229.723 234.8 230.384 234.8 231.248C234.8 232.144 234.501 232.832 233.904 233.312C233.317 233.792 232.464 234.027 231.344 234.016L227.952 234V225.584H229.088V228.528L231.568 228.56ZM231.28 233.152C232.059 233.163 232.645 233.008 233.04 232.688C233.445 232.357 233.648 231.877 233.648 231.248C233.648 230.629 233.451 230.171 233.056 229.872C232.661 229.573 232.069 229.419 231.28 229.408L229.088 229.376V233.12L231.28 233.152ZM250.563 225.584V234H249.523V227.344L246.115 232.976H245.603L242.195 227.328V234H241.155V225.584H242.307L245.875 231.648L249.507 225.584H250.563ZM256.692 225.52C257.79 225.52 258.633 225.797 259.22 226.352C259.806 226.896 260.1 227.707 260.1 228.784V234H259.012V232.688C258.756 233.125 258.377 233.467 257.876 233.712C257.385 233.957 256.798 234.08 256.116 234.08C255.177 234.08 254.43 233.856 253.876 233.408C253.321 232.96 253.044 232.368 253.044 231.632C253.044 230.917 253.3 230.341 253.812 229.904C254.334 229.467 255.161 229.248 256.292 229.248H258.964V228.736C258.964 228.011 258.761 227.461 258.356 227.088C257.95 226.704 257.358 226.512 256.58 226.512C256.046 226.512 255.534 226.603 255.044 226.784C254.553 226.955 254.132 227.195 253.78 227.504L253.268 226.656C253.694 226.293 254.206 226.016 254.804 225.824C255.401 225.621 256.03 225.52 256.692 225.52ZM256.292 233.184C256.932 233.184 257.481 233.04 257.94 232.752C258.398 232.453 258.74 232.027 258.964 231.472V230.096H256.324C254.884 230.096 254.164 230.597 254.164 231.6C254.164 232.091 254.35 232.48 254.724 232.768C255.097 233.045 255.62 233.184 256.292 233.184ZM267.46 225.52C268.249 225.52 268.964 225.701 269.604 226.064C270.244 226.416 270.745 226.917 271.108 227.568C271.47 228.219 271.652 228.96 271.652 229.792C271.652 230.635 271.47 231.381 271.108 232.032C270.745 232.683 270.244 233.189 269.604 233.552C268.974 233.904 268.26 234.08 267.46 234.08C266.777 234.08 266.158 233.941 265.604 233.664C265.06 233.376 264.612 232.96 264.26 232.416V237.104H263.124V225.584H264.212V227.248C264.553 226.693 265.001 226.267 265.556 225.968C266.121 225.669 266.756 225.52 267.46 225.52ZM267.38 233.072C267.966 233.072 268.5 232.939 268.98 232.672C269.46 232.395 269.833 232.005 270.1 231.504C270.377 231.003 270.516 230.432 270.516 229.792C270.516 229.152 270.377 228.587 270.1 228.096C269.833 227.595 269.46 227.205 268.98 226.928C268.5 226.651 267.966 226.512 267.38 226.512C266.782 226.512 266.244 226.651 265.764 226.928C265.294 227.205 264.921 227.595 264.644 228.096C264.377 228.587 264.244 229.152 264.244 229.792C264.244 230.432 264.377 231.003 264.644 231.504C264.921 232.005 265.294 232.395 265.764 232.672C266.244 232.939 266.782 233.072 267.38 233.072ZM277.149 230.256H275.229V234H274.093V225.584H275.229V229.28H277.165L280.125 225.584H281.357L278.045 229.664L281.597 234H280.253L277.149 230.256ZM290.057 225.584L285.849 235.008C285.508 235.797 285.113 236.357 284.665 236.688C284.217 237.019 283.678 237.184 283.049 237.184C282.644 237.184 282.265 237.12 281.913 236.992C281.561 236.864 281.257 236.672 281.001 236.416L281.529 235.568C281.956 235.995 282.468 236.208 283.065 236.208C283.449 236.208 283.774 236.101 284.041 235.888C284.318 235.675 284.574 235.312 284.809 234.8L285.177 233.984L281.417 225.584H282.601L285.769 232.736L288.937 225.584H290.057Z" fill="#333333"/>
</g>
<defs>
<filter id="filter0_d" x="0" y="0.317993" width="420" height="292.532" filterUnits="userSpaceOnUse" color-interpolation-filters="sRGB">
<feFlood flood-opacity="0" result="BackgroundImageFix"/>
<feColorMatrix in="SourceAlpha" type="matrix" values="0 0 0 0 0 0 0 0 0 0 0 0 0 0 0 0 0 0 127 0"/>
<feOffset dy="4"/>
<feGaussianBlur stdDeviation="2"/>
<feColorMatrix type="matrix" values="0 0 0 0 0 0 0 0 0 0 0 0 0 0 0 0 0 0 0.25 0"/>
<feBlend mode="normal" in2="BackgroundImageFix" result="effect1_dropShadow"/>
<feBlend mode="normal" in="SourceGraphic" in2="effect1_dropShadow" result="shape"/>
</filter>
</defs>
</svg>
