<svg width="423" height="295" viewBox="0 0 423 295" fill="none" xmlns="http://www.w3.org/2000/svg">
<g filter="url(#filter0_d)">
<rect x="4" y="0.938965" width="415" height="286.061" rx="6" fill="#FEFEFE"/>
<path d="M171.216 125.536C165.264 125.536 159.984 124.16 155.376 121.408C150.832 118.592 147.248 114.56 144.624 109.312C142.064 104 140.784 97.696 140.784 90.4C140.784 83.104 142.064 76.832 144.624 71.584C147.248 66.272 150.832 62.24 155.376 59.488C159.984 56.672 165.264 55.264 171.216 55.264C177.168 55.264 182.416 56.672 186.96 59.488C191.568 62.24 195.152 66.272 197.712 71.584C200.336 76.832 201.648 83.104 201.648 90.4C201.648 97.696 200.336 104 197.712 109.312C195.152 114.56 191.568 118.592 186.96 121.408C182.416 124.16 177.168 125.536 171.216 125.536ZM171.216 107.392C176.336 107.392 178.896 101.728 178.896 90.4C178.896 79.072 176.336 73.408 171.216 73.408C166.096 73.408 163.536 79.072 163.536 90.4C163.536 101.728 166.096 107.392 171.216 107.392ZM260.075 106.432V124H206.219V110.08L230.507 87.616C232.619 85.632 234.027 83.936 234.731 82.528C235.435 81.12 235.787 79.744 235.787 78.4C235.787 76.736 235.211 75.456 234.059 74.56C232.971 73.6 231.371 73.12 229.259 73.12C227.211 73.12 225.291 73.664 223.499 74.752C221.707 75.84 220.331 77.376 219.371 79.36L202.283 70.816C204.843 66.016 208.587 62.24 213.515 59.488C218.443 56.672 224.395 55.264 231.371 55.264C236.683 55.264 241.387 56.128 245.483 57.856C249.579 59.584 252.779 62.048 255.083 65.248C257.387 68.448 258.539 72.128 258.539 76.288C258.539 80 257.739 83.488 256.139 86.752C254.603 89.952 251.563 93.6 247.019 97.696L237.419 106.432H260.075Z" fill="#E1ECF2" fill-opacity="0.5"/>
<path d="M115.722 154.6V170H112.906V157.02H104.92V170H102.104V154.6H115.722ZM124.992 170.154C123.804 170.154 122.734 169.897 121.78 169.384C120.827 168.871 120.079 168.159 119.536 167.25C119.008 166.326 118.744 165.285 118.744 164.126C118.744 162.967 119.008 161.933 119.536 161.024C120.079 160.115 120.827 159.403 121.78 158.89C122.734 158.377 123.804 158.12 124.992 158.12C126.195 158.12 127.273 158.377 128.226 158.89C129.18 159.403 129.92 160.115 130.448 161.024C130.991 161.933 131.262 162.967 131.262 164.126C131.262 165.285 130.991 166.326 130.448 167.25C129.92 168.159 129.18 168.871 128.226 169.384C127.273 169.897 126.195 170.154 124.992 170.154ZM124.992 167.8C126.004 167.8 126.84 167.463 127.5 166.788C128.16 166.113 128.49 165.226 128.49 164.126C128.49 163.026 128.16 162.139 127.5 161.464C126.84 160.789 126.004 160.452 124.992 160.452C123.98 160.452 123.144 160.789 122.484 161.464C121.839 162.139 121.516 163.026 121.516 164.126C121.516 165.226 121.839 166.113 122.484 166.788C123.144 167.463 123.98 167.8 124.992 167.8ZM146.39 167.668V172.618H143.816V170H134.752V172.618H132.2V167.668H132.75C133.498 167.639 134.004 167.162 134.268 166.238C134.547 165.299 134.73 163.979 134.818 162.278L134.972 158.252H144.652V167.668H146.39ZM137.326 162.476C137.267 163.825 137.157 164.925 136.996 165.776C136.835 166.627 136.541 167.257 136.116 167.668H141.902V160.584H137.392L137.326 162.476ZM155.204 158.824C156.319 158.824 157.301 159.066 158.152 159.55C159.003 160.019 159.663 160.679 160.132 161.53C160.616 162.381 160.858 163.356 160.858 164.456C160.858 165.585 160.594 166.59 160.066 167.47C159.538 168.335 158.797 169.01 157.844 169.494C156.891 169.978 155.805 170.22 154.588 170.22C152.549 170.22 150.973 169.545 149.858 168.196C148.743 166.847 148.186 164.903 148.186 162.366C148.186 160.005 148.692 158.135 149.704 156.756C150.716 155.377 152.263 154.468 154.346 154.028L159.802 152.862L160.198 155.326L155.248 156.338C153.825 156.631 152.762 157.13 152.058 157.834C151.354 158.538 150.943 159.528 150.826 160.804C151.354 160.173 151.992 159.689 152.74 159.352C153.488 159 154.309 158.824 155.204 158.824ZM154.654 167.998C155.666 167.998 156.48 167.675 157.096 167.03C157.727 166.37 158.042 165.534 158.042 164.522C158.042 163.51 157.727 162.696 157.096 162.08C156.48 161.464 155.666 161.156 154.654 161.156C153.627 161.156 152.799 161.464 152.168 162.08C151.537 162.696 151.222 163.51 151.222 164.522C151.222 165.549 151.537 166.385 152.168 167.03C152.813 167.675 153.642 167.998 154.654 167.998ZM174.52 164.192C174.52 164.383 174.505 164.654 174.476 165.006H165.258C165.419 165.871 165.837 166.561 166.512 167.074C167.201 167.573 168.052 167.822 169.064 167.822C170.355 167.822 171.418 167.397 172.254 166.546L173.728 168.24C173.2 168.871 172.533 169.347 171.726 169.67C170.919 169.993 170.01 170.154 168.998 170.154C167.707 170.154 166.571 169.897 165.588 169.384C164.605 168.871 163.843 168.159 163.3 167.25C162.772 166.326 162.508 165.285 162.508 164.126C162.508 162.982 162.765 161.955 163.278 161.046C163.806 160.122 164.532 159.403 165.456 158.89C166.38 158.377 167.421 158.12 168.58 158.12C169.724 158.12 170.743 158.377 171.638 158.89C172.547 159.389 173.251 160.1 173.75 161.024C174.263 161.933 174.52 162.989 174.52 164.192ZM168.58 160.32C167.7 160.32 166.952 160.584 166.336 161.112C165.735 161.625 165.368 162.315 165.236 163.18H171.902C171.785 162.329 171.425 161.64 170.824 161.112C170.223 160.584 169.475 160.32 168.58 160.32ZM184.04 158.12C185.184 158.12 186.203 158.369 187.098 158.868C188.007 159.367 188.718 160.071 189.232 160.98C189.745 161.889 190.002 162.938 190.002 164.126C190.002 165.314 189.745 166.37 189.232 167.294C188.718 168.203 188.007 168.907 187.098 169.406C186.203 169.905 185.184 170.154 184.04 170.154C182.456 170.154 181.202 169.626 180.278 168.57V174.268H177.528V158.252H180.146V159.792C180.6 159.235 181.158 158.817 181.818 158.538C182.492 158.259 183.233 158.12 184.04 158.12ZM183.732 167.8C184.744 167.8 185.572 167.463 186.218 166.788C186.878 166.113 187.208 165.226 187.208 164.126C187.208 163.026 186.878 162.139 186.218 161.464C185.572 160.789 184.744 160.452 183.732 160.452C183.072 160.452 182.478 160.606 181.95 160.914C181.422 161.207 181.004 161.633 180.696 162.19C180.388 162.747 180.234 163.393 180.234 164.126C180.234 164.859 180.388 165.505 180.696 166.062C181.004 166.619 181.422 167.052 181.95 167.36C182.478 167.653 183.072 167.8 183.732 167.8ZM203.739 164.192C203.739 164.383 203.724 164.654 203.695 165.006H194.477C194.638 165.871 195.056 166.561 195.731 167.074C196.42 167.573 197.271 167.822 198.283 167.822C199.573 167.822 200.637 167.397 201.473 166.546L202.947 168.24C202.419 168.871 201.751 169.347 200.945 169.67C200.138 169.993 199.229 170.154 198.217 170.154C196.926 170.154 195.789 169.897 194.807 169.384C193.824 168.871 193.061 168.159 192.519 167.25C191.991 166.326 191.727 165.285 191.727 164.126C191.727 162.982 191.983 161.955 192.497 161.046C193.025 160.122 193.751 159.403 194.675 158.89C195.599 158.377 196.64 158.12 197.799 158.12C198.943 158.12 199.962 158.377 200.857 158.89C201.766 159.389 202.47 160.1 202.969 161.024C203.482 161.933 203.739 162.989 203.739 164.192ZM197.799 160.32C196.919 160.32 196.171 160.584 195.555 161.112C194.953 161.625 194.587 162.315 194.455 163.18H201.121C201.003 162.329 200.644 161.64 200.043 161.112C199.441 160.584 198.693 160.32 197.799 160.32ZM218.296 170V162.212L214.336 168.768H213.148L209.254 162.19V170H206.746V158.252H209.628L213.808 165.6L218.186 158.252H220.76L220.782 170H218.296ZM239.857 160.584H235.743V170H232.993V160.584H228.857V158.252H239.857V160.584ZM252.336 164.192C252.336 164.383 252.322 164.654 252.292 165.006H243.074C243.236 165.871 243.654 166.561 244.328 167.074C245.018 167.573 245.868 167.822 246.88 167.822C248.171 167.822 249.234 167.397 250.07 166.546L251.544 168.24C251.016 168.871 250.349 169.347 249.542 169.67C248.736 169.993 247.826 170.154 246.814 170.154C245.524 170.154 244.387 169.897 243.404 169.384C242.422 168.871 241.659 168.159 241.116 167.25C240.588 166.326 240.324 165.285 240.324 164.126C240.324 162.982 240.581 161.955 241.094 161.046C241.622 160.122 242.348 159.403 243.272 158.89C244.196 158.377 245.238 158.12 246.396 158.12C247.54 158.12 248.56 158.377 249.454 158.89C250.364 159.389 251.068 160.1 251.566 161.024C252.08 161.933 252.336 162.989 252.336 164.192ZM246.396 160.32C245.516 160.32 244.768 160.584 244.152 161.112C243.551 161.625 243.184 162.315 243.052 163.18H249.718C249.601 162.329 249.242 161.64 248.64 161.112C248.039 160.584 247.291 160.32 246.396 160.32ZM262.37 170L259.356 165.93L256.32 170H253.284L257.86 164.038L253.482 158.252H256.54L259.422 162.102L262.304 158.252H265.274L260.874 163.994L265.472 170H262.37ZM267.44 158.252H270.19V163.026H276.108V158.252H278.858V170H276.108V165.358H270.19V170H267.44V158.252ZM282.543 158.252H285.293V165.996L291.783 158.252H294.291V170H291.541V162.256L285.073 170H282.543V158.252ZM302.875 165.292H300.741V170H297.991V158.252H300.741V163.004H302.941L306.417 158.252H309.365L305.097 163.906L309.651 170H306.417L302.875 165.292ZM322.012 158.252L316.512 170.946C315.999 172.222 315.376 173.117 314.642 173.63C313.909 174.158 313.022 174.422 311.98 174.422C311.394 174.422 310.814 174.327 310.242 174.136C309.67 173.945 309.201 173.681 308.834 173.344L309.934 171.32C310.198 171.569 310.506 171.767 310.858 171.914C311.225 172.061 311.592 172.134 311.958 172.134C312.442 172.134 312.838 172.009 313.146 171.76C313.469 171.511 313.762 171.093 314.026 170.506L314.224 170.044L309.098 158.252H311.958L315.654 166.942L319.372 158.252H322.012Z" fill="#333333"/>
<path d="M114.674 206.144C115.41 206.325 115.986 206.656 116.402 207.136C116.829 207.616 117.042 208.192 117.042 208.864C117.042 209.515 116.839 210.085 116.434 210.576C116.029 211.067 115.49 211.445 114.818 211.712C114.146 211.968 113.415 212.096 112.626 212.096C111.879 212.096 111.143 211.979 110.418 211.744C109.703 211.499 109.058 211.136 108.482 210.656L108.914 209.808C109.405 210.224 109.965 210.544 110.594 210.768C111.223 210.981 111.858 211.088 112.498 211.088C113.106 211.088 113.666 210.992 114.178 210.8C114.69 210.608 115.095 210.336 115.394 209.984C115.703 209.621 115.858 209.195 115.858 208.704C115.858 208.053 115.602 207.552 115.09 207.2C114.578 206.848 113.858 206.672 112.93 206.672H110.53V205.712H112.866C113.655 205.712 114.269 205.547 114.706 205.216C115.154 204.875 115.378 204.405 115.378 203.808C115.378 203.147 115.095 202.629 114.53 202.256C113.965 201.872 113.255 201.68 112.402 201.68C111.869 201.68 111.33 201.76 110.786 201.92C110.242 202.069 109.725 202.299 109.234 202.608L108.834 201.632C109.943 200.971 111.143 200.64 112.434 200.64C113.191 200.64 113.885 200.763 114.514 201.008C115.143 201.253 115.639 201.605 116.002 202.064C116.375 202.523 116.562 203.061 116.562 203.68C116.562 204.277 116.397 204.795 116.066 205.232C115.735 205.659 115.271 205.963 114.674 206.144ZM125.07 207.648C126.211 207.915 126.782 208.603 126.782 209.712C126.782 210.448 126.51 211.013 125.966 211.408C125.422 211.803 124.611 212 123.534 212H119.71V203.584H123.422C124.382 203.584 125.134 203.771 125.678 204.144C126.222 204.517 126.494 205.051 126.494 205.744C126.494 206.203 126.366 206.597 126.11 206.928C125.864 207.248 125.518 207.488 125.07 207.648ZM120.814 207.328H123.342C123.992 207.328 124.488 207.205 124.83 206.96C125.182 206.715 125.358 206.357 125.358 205.888C125.358 205.419 125.182 205.067 124.83 204.832C124.488 204.597 123.992 204.48 123.342 204.48H120.814V207.328ZM123.486 211.104C124.211 211.104 124.755 210.987 125.118 210.752C125.48 210.517 125.662 210.149 125.662 209.648C125.662 209.147 125.496 208.779 125.166 208.544C124.835 208.299 124.312 208.176 123.598 208.176H120.814V211.104H123.486ZM132.916 212.08C132.105 212.08 131.375 211.899 130.724 211.536C130.073 211.163 129.561 210.651 129.188 210C128.815 209.349 128.628 208.613 128.628 207.792C128.628 206.971 128.815 206.235 129.188 205.584C129.561 204.933 130.073 204.427 130.724 204.064C131.375 203.701 132.105 203.52 132.916 203.52C133.727 203.52 134.457 203.701 135.108 204.064C135.759 204.427 136.265 204.933 136.628 205.584C137.001 206.235 137.188 206.971 137.188 207.792C137.188 208.613 137.001 209.349 136.628 210C136.265 210.651 135.759 211.163 135.108 211.536C134.457 211.899 133.727 212.08 132.916 212.08ZM132.916 211.072C133.513 211.072 134.047 210.939 134.516 210.672C134.996 210.395 135.369 210.005 135.636 209.504C135.903 209.003 136.036 208.432 136.036 207.792C136.036 207.152 135.903 206.581 135.636 206.08C135.369 205.579 134.996 205.195 134.516 204.928C134.047 204.651 133.513 204.512 132.916 204.512C132.319 204.512 131.78 204.651 131.3 204.928C130.831 205.195 130.457 205.579 130.18 206.08C129.913 206.581 129.78 207.152 129.78 207.792C129.78 208.432 129.913 209.003 130.18 209.504C130.457 210.005 130.831 210.395 131.3 210.672C131.78 210.939 132.319 211.072 132.916 211.072ZM139.616 203.584H140.752V207.312H146.048V203.584H147.184V212H146.048V208.288H140.752V212H139.616V203.584ZM150.413 203.584H151.549V210.272L157.165 203.584H158.173V212H157.037V205.312L151.437 212H150.413V203.584ZM167.349 204.592H164.165V212H163.029V204.592H159.845V203.584H167.349V204.592ZM175.96 208.144H168.92C168.984 209.019 169.32 209.728 169.928 210.272C170.536 210.805 171.304 211.072 172.232 211.072C172.755 211.072 173.235 210.981 173.672 210.8C174.11 210.608 174.488 210.331 174.808 209.968L175.448 210.704C175.075 211.152 174.606 211.493 174.04 211.728C173.486 211.963 172.872 212.08 172.2 212.08C171.336 212.08 170.568 211.899 169.896 211.536C169.235 211.163 168.718 210.651 168.344 210C167.971 209.349 167.784 208.613 167.784 207.792C167.784 206.971 167.96 206.235 168.312 205.584C168.675 204.933 169.166 204.427 169.784 204.064C170.414 203.701 171.118 203.52 171.896 203.52C172.675 203.52 173.374 203.701 173.992 204.064C174.611 204.427 175.096 204.933 175.448 205.584C175.8 206.224 175.976 206.96 175.976 207.792L175.96 208.144ZM171.896 204.496C171.086 204.496 170.403 204.757 169.848 205.28C169.304 205.792 168.995 206.464 168.92 207.296H174.888C174.814 206.464 174.499 205.792 173.944 205.28C173.4 204.757 172.718 204.496 171.896 204.496ZM178.571 212.08C178.336 212.08 178.134 211.995 177.963 211.824C177.803 211.653 177.723 211.445 177.723 211.2C177.723 210.955 177.803 210.752 177.963 210.592C178.134 210.421 178.336 210.336 178.571 210.336C178.806 210.336 179.008 210.421 179.179 210.592C179.35 210.752 179.435 210.955 179.435 211.2C179.435 211.445 179.35 211.653 179.179 211.824C179.008 211.995 178.806 212.08 178.571 212.08ZM197.973 200.8V212H196.837V203.04L192.437 210.576H191.877L187.477 203.088V212H186.341V200.8H187.317L192.181 209.104L196.997 200.8H197.973ZM205.011 206.56C206.067 206.571 206.873 206.805 207.427 207.264C207.982 207.723 208.259 208.384 208.259 209.248C208.259 210.144 207.961 210.832 207.363 211.312C206.766 211.792 205.913 212.027 204.803 212.016L201.475 212V203.584H202.611V206.528L205.011 206.56ZM209.667 203.584H210.803V212H209.667V203.584ZM204.739 211.152C205.518 211.163 206.105 211.008 206.499 210.688C206.905 210.357 207.107 209.877 207.107 209.248C207.107 208.629 206.91 208.171 206.515 207.872C206.121 207.573 205.529 207.419 204.739 207.408L202.611 207.376V211.12L204.739 211.152ZM221.697 212.08C220.887 212.08 220.156 211.899 219.505 211.536C218.855 211.163 218.343 210.651 217.969 210C217.596 209.349 217.409 208.613 217.409 207.792C217.409 206.971 217.596 206.235 217.969 205.584C218.343 204.933 218.855 204.427 219.505 204.064C220.156 203.701 220.887 203.52 221.697 203.52C222.508 203.52 223.239 203.701 223.889 204.064C224.54 204.427 225.047 204.933 225.409 205.584C225.783 206.235 225.969 206.971 225.969 207.792C225.969 208.613 225.783 209.349 225.409 210C225.047 210.651 224.54 211.163 223.889 211.536C223.239 211.899 222.508 212.08 221.697 212.08ZM221.697 211.072C222.295 211.072 222.828 210.939 223.297 210.672C223.777 210.395 224.151 210.005 224.417 209.504C224.684 209.003 224.817 208.432 224.817 207.792C224.817 207.152 224.684 206.581 224.417 206.08C224.151 205.579 223.777 205.195 223.297 204.928C222.828 204.651 222.295 204.512 221.697 204.512C221.1 204.512 220.561 204.651 220.081 204.928C219.612 205.195 219.239 205.579 218.961 206.08C218.695 206.581 218.561 207.152 218.561 207.792C218.561 208.432 218.695 209.003 218.961 209.504C219.239 210.005 219.612 210.395 220.081 210.672C220.561 210.939 221.1 211.072 221.697 211.072ZM232.733 203.52C233.523 203.52 234.237 203.701 234.877 204.064C235.517 204.416 236.019 204.917 236.381 205.568C236.744 206.219 236.925 206.96 236.925 207.792C236.925 208.635 236.744 209.381 236.381 210.032C236.019 210.683 235.517 211.189 234.877 211.552C234.248 211.904 233.533 212.08 232.733 212.08C232.051 212.08 231.432 211.941 230.877 211.664C230.333 211.376 229.885 210.96 229.533 210.416V215.104H228.397V203.584H229.485V205.248C229.827 204.693 230.275 204.267 230.829 203.968C231.395 203.669 232.029 203.52 232.733 203.52ZM232.653 211.072C233.24 211.072 233.773 210.939 234.253 210.672C234.733 210.395 235.107 210.005 235.373 209.504C235.651 209.003 235.789 208.432 235.789 207.792C235.789 207.152 235.651 206.587 235.373 206.096C235.107 205.595 234.733 205.205 234.253 204.928C233.773 204.651 233.24 204.512 232.653 204.512C232.056 204.512 231.517 204.651 231.037 204.928C230.568 205.205 230.195 205.595 229.917 206.096C229.651 206.587 229.517 207.152 229.517 207.792C229.517 208.432 229.651 209.003 229.917 209.504C230.195 210.005 230.568 210.395 231.037 210.672C231.517 210.939 232.056 211.072 232.653 211.072ZM245.318 204.592H240.502V212H239.366V203.584H245.318V204.592ZM249.856 203.52C250.954 203.52 251.797 203.797 252.384 204.352C252.97 204.896 253.264 205.707 253.264 206.784V212H252.176V210.688C251.92 211.125 251.541 211.467 251.04 211.712C250.549 211.957 249.962 212.08 249.28 212.08C248.341 212.08 247.594 211.856 247.04 211.408C246.485 210.96 246.208 210.368 246.208 209.632C246.208 208.917 246.464 208.341 246.976 207.904C247.498 207.467 248.325 207.248 249.456 207.248H252.128V206.736C252.128 206.011 251.925 205.461 251.52 205.088C251.114 204.704 250.522 204.512 249.744 204.512C249.21 204.512 248.698 204.603 248.208 204.784C247.717 204.955 247.296 205.195 246.944 205.504L246.432 204.656C246.858 204.293 247.37 204.016 247.968 203.824C248.565 203.621 249.194 203.52 249.856 203.52ZM249.456 211.184C250.096 211.184 250.645 211.04 251.104 210.752C251.562 210.453 251.904 210.027 252.128 209.472V208.096H249.488C248.048 208.096 247.328 208.597 247.328 209.6C247.328 210.091 247.514 210.48 247.888 210.768C248.261 211.045 248.784 211.184 249.456 211.184ZM256.288 203.584H257.424V207.312H262.72V203.584H263.856V212H262.72V208.288H257.424V212H256.288V203.584ZM267.085 203.584H268.221V210.272L273.837 203.584H274.845V212H273.709V205.312L268.109 212H267.085V203.584ZM282.025 207.616C282.622 207.755 283.081 207.995 283.401 208.336C283.731 208.677 283.897 209.093 283.897 209.584C283.897 210.075 283.726 210.512 283.385 210.896C283.054 211.28 282.601 211.579 282.025 211.792C281.449 211.995 280.814 212.096 280.121 212.096C279.513 212.096 278.915 212.011 278.329 211.84C277.742 211.659 277.23 211.397 276.793 211.056L277.177 210.208C277.561 210.496 278.009 210.72 278.521 210.88C279.033 211.04 279.55 211.12 280.073 211.12C280.851 211.12 281.486 210.976 281.977 210.688C282.478 210.389 282.729 209.989 282.729 209.488C282.729 209.04 282.526 208.693 282.121 208.448C281.715 208.192 281.161 208.064 280.457 208.064H279.017V207.232H280.393C281.022 207.232 281.529 207.115 281.913 206.88C282.297 206.635 282.489 206.309 282.489 205.904C282.489 205.456 282.27 205.104 281.833 204.848C281.406 204.592 280.846 204.464 280.153 204.464C279.246 204.464 278.35 204.693 277.465 205.152L277.145 204.272C278.147 203.749 279.187 203.488 280.265 203.488C280.905 203.488 281.481 203.584 281.993 203.776C282.515 203.957 282.921 204.219 283.209 204.56C283.507 204.901 283.657 205.296 283.657 205.744C283.657 206.171 283.507 206.549 283.209 206.88C282.921 207.211 282.526 207.456 282.025 207.616ZM293.627 203.584L289.419 213.008C289.078 213.797 288.683 214.357 288.235 214.688C287.787 215.019 287.249 215.184 286.619 215.184C286.214 215.184 285.835 215.12 285.483 214.992C285.131 214.864 284.827 214.672 284.571 214.416L285.099 213.568C285.526 213.995 286.038 214.208 286.635 214.208C287.019 214.208 287.345 214.101 287.611 213.888C287.889 213.675 288.145 213.312 288.379 212.8L288.747 211.984L284.987 203.584H286.171L289.339 210.736L292.507 203.584H293.627ZM302.523 208.144H295.483C295.547 209.019 295.883 209.728 296.491 210.272C297.099 210.805 297.867 211.072 298.795 211.072C299.318 211.072 299.798 210.981 300.235 210.8C300.672 210.608 301.051 210.331 301.371 209.968L302.011 210.704C301.638 211.152 301.168 211.493 300.603 211.728C300.048 211.963 299.435 212.08 298.763 212.08C297.899 212.08 297.131 211.899 296.459 211.536C295.798 211.163 295.28 210.651 294.907 210C294.534 209.349 294.347 208.613 294.347 207.792C294.347 206.971 294.523 206.235 294.875 205.584C295.238 204.933 295.728 204.427 296.347 204.064C296.976 203.701 297.68 203.52 298.459 203.52C299.238 203.52 299.936 203.701 300.555 204.064C301.174 204.427 301.659 204.933 302.011 205.584C302.363 206.224 302.539 206.96 302.539 207.792L302.523 208.144ZM298.459 204.496C297.648 204.496 296.966 204.757 296.411 205.28C295.867 205.792 295.558 206.464 295.483 207.296H301.451C301.376 206.464 301.062 205.792 300.507 205.28C299.963 204.757 299.28 204.496 298.459 204.496ZM314.462 203.584V212H313.422V205.344L310.014 210.976H309.502L306.094 205.328V212H305.054V203.584H306.206L309.774 209.648L313.406 203.584H314.462ZM116.582 233.008V236.032H115.51V234H107.974V236.032H106.902V233.008H107.382C107.947 232.976 108.331 232.56 108.534 231.76C108.736 230.96 108.875 229.84 108.95 228.4L109.062 225.584H115.27V233.008H116.582ZM109.99 228.464C109.936 229.659 109.835 230.645 109.686 231.424C109.536 232.192 109.27 232.72 108.886 233.008H114.134V226.592H110.086L109.99 228.464ZM122.268 234.08C121.457 234.08 120.726 233.899 120.076 233.536C119.425 233.163 118.913 232.651 118.54 232C118.166 231.349 117.98 230.613 117.98 229.792C117.98 228.971 118.166 228.235 118.54 227.584C118.913 226.933 119.425 226.427 120.076 226.064C120.726 225.701 121.457 225.52 122.268 225.52C123.078 225.52 123.809 225.701 124.46 226.064C125.11 226.427 125.617 226.933 125.98 227.584C126.353 228.235 126.54 228.971 126.54 229.792C126.54 230.613 126.353 231.349 125.98 232C125.617 232.651 125.11 233.163 124.46 233.536C123.809 233.899 123.078 234.08 122.268 234.08ZM122.268 233.072C122.865 233.072 123.398 232.939 123.868 232.672C124.348 232.395 124.721 232.005 124.988 231.504C125.254 231.003 125.388 230.432 125.388 229.792C125.388 229.152 125.254 228.581 124.988 228.08C124.721 227.579 124.348 227.195 123.868 226.928C123.398 226.651 122.865 226.512 122.268 226.512C121.67 226.512 121.132 226.651 120.652 226.928C120.182 227.195 119.809 227.579 119.532 228.08C119.265 228.581 119.132 229.152 119.132 229.792C119.132 230.432 119.265 231.003 119.532 231.504C119.809 232.005 120.182 232.395 120.652 232.672C121.132 232.939 121.67 233.072 122.268 233.072ZM132.488 234.08C131.656 234.08 130.909 233.899 130.248 233.536C129.597 233.173 129.085 232.667 128.712 232.016C128.338 231.355 128.152 230.613 128.152 229.792C128.152 228.971 128.338 228.235 128.712 227.584C129.085 226.933 129.597 226.427 130.248 226.064C130.909 225.701 131.656 225.52 132.488 225.52C133.213 225.52 133.858 225.664 134.424 225.952C135 226.229 135.453 226.64 135.784 227.184L134.936 227.76C134.658 227.344 134.306 227.035 133.88 226.832C133.453 226.619 132.989 226.512 132.488 226.512C131.88 226.512 131.33 226.651 130.84 226.928C130.36 227.195 129.981 227.579 129.704 228.08C129.437 228.581 129.304 229.152 129.304 229.792C129.304 230.443 129.437 231.019 129.704 231.52C129.981 232.011 130.36 232.395 130.84 232.672C131.33 232.939 131.88 233.072 132.488 233.072C132.989 233.072 133.453 232.971 133.88 232.768C134.306 232.565 134.658 232.256 134.936 231.84L135.784 232.416C135.453 232.96 135 233.376 134.424 233.664C133.848 233.941 133.202 234.08 132.488 234.08ZM143.747 226.592H140.563V234H139.427V226.592H136.243V225.584H143.747V226.592ZM148.285 225.52C149.384 225.52 150.227 225.797 150.813 226.352C151.4 226.896 151.693 227.707 151.693 228.784V234H150.605V232.688C150.349 233.125 149.971 233.467 149.469 233.712C148.979 233.957 148.392 234.08 147.709 234.08C146.771 234.08 146.024 233.856 145.469 233.408C144.915 232.96 144.637 232.368 144.637 231.632C144.637 230.917 144.893 230.341 145.405 229.904C145.928 229.467 146.755 229.248 147.885 229.248H150.557V228.736C150.557 228.011 150.355 227.461 149.949 227.088C149.544 226.704 148.952 226.512 148.173 226.512C147.64 226.512 147.128 226.603 146.637 226.784C146.147 226.955 145.725 227.195 145.373 227.504L144.861 226.656C145.288 226.293 145.8 226.016 146.397 225.824C146.995 225.621 147.624 225.52 148.285 225.52ZM147.885 233.184C148.525 233.184 149.075 233.04 149.533 232.752C149.992 232.453 150.333 232.027 150.557 231.472V230.096H147.917C146.477 230.096 145.757 230.597 145.757 231.6C145.757 232.091 145.944 232.48 146.317 232.768C146.691 233.045 147.213 233.184 147.885 233.184ZM160.078 229.648C161.219 229.915 161.79 230.603 161.79 231.712C161.79 232.448 161.518 233.013 160.974 233.408C160.43 233.803 159.619 234 158.542 234H154.718V225.584H158.43C159.39 225.584 160.142 225.771 160.686 226.144C161.23 226.517 161.502 227.051 161.502 227.744C161.502 228.203 161.374 228.597 161.118 228.928C160.872 229.248 160.526 229.488 160.078 229.648ZM155.822 229.328H158.35C159 229.328 159.496 229.205 159.838 228.96C160.19 228.715 160.366 228.357 160.366 227.888C160.366 227.419 160.19 227.067 159.838 226.832C159.496 226.597 159 226.48 158.35 226.48H155.822V229.328ZM158.494 233.104C159.219 233.104 159.763 232.987 160.126 232.752C160.488 232.517 160.67 232.149 160.67 231.648C160.67 231.147 160.504 230.779 160.174 230.544C159.843 230.299 159.32 230.176 158.606 230.176H155.822V233.104H158.494ZM167.508 230.256H165.588V234H164.452V225.584H165.588V229.28H167.524L170.484 225.584H171.716L168.404 229.664L171.956 234H170.612L167.508 230.256ZM180.416 225.584L176.208 235.008C175.867 235.797 175.472 236.357 175.024 236.688C174.576 237.019 174.038 237.184 173.408 237.184C173.003 237.184 172.624 237.12 172.272 236.992C171.92 236.864 171.616 236.672 171.36 236.416L171.888 235.568C172.315 235.995 172.827 236.208 173.424 236.208C173.808 236.208 174.134 236.101 174.4 235.888C174.678 235.675 174.934 235.312 175.168 234.8L175.536 233.984L171.776 225.584H172.96L176.128 232.736L179.296 225.584H180.416ZM192.294 226.592H189.11V234H187.974V226.592H184.79V225.584H192.294V226.592ZM200.906 230.144H193.866C193.93 231.019 194.266 231.728 194.874 232.272C195.482 232.805 196.25 233.072 197.178 233.072C197.7 233.072 198.18 232.981 198.618 232.8C199.055 232.608 199.434 232.331 199.754 231.968L200.394 232.704C200.02 233.152 199.551 233.493 198.986 233.728C198.431 233.963 197.818 234.08 197.146 234.08C196.282 234.08 195.514 233.899 194.842 233.536C194.18 233.163 193.663 232.651 193.29 232C192.916 231.349 192.73 230.613 192.73 229.792C192.73 228.971 192.906 228.235 193.258 227.584C193.62 226.933 194.111 226.427 194.73 226.064C195.359 225.701 196.063 225.52 196.842 225.52C197.62 225.52 198.319 225.701 198.938 226.064C199.556 226.427 200.042 226.933 200.394 227.584C200.746 228.224 200.922 228.96 200.922 229.792L200.906 230.144ZM196.842 226.496C196.031 226.496 195.348 226.757 194.794 227.28C194.25 227.792 193.94 228.464 193.866 229.296H199.834C199.759 228.464 199.444 227.792 198.89 227.28C198.346 226.757 197.663 226.496 196.842 226.496ZM208.466 234L205.794 230.48L203.106 234H201.826L205.154 229.68L201.986 225.584H203.266L205.794 228.88L208.322 225.584H209.57L206.402 229.68L209.762 234H208.466ZM211.624 225.584H212.76V229.312H218.056V225.584H219.192V234H218.056V230.288H212.76V234H211.624V225.584ZM222.421 225.584H223.557V232.272L229.173 225.584H230.181V234H229.045V227.312L223.445 234H222.421V225.584ZM236.492 230.256H234.572V234H233.436V225.584H234.572V229.28H236.508L239.468 225.584H240.7L237.388 229.664L240.94 234H239.596L236.492 230.256ZM242.733 225.584H243.869V232.272L249.485 225.584H250.493V234H249.357V227.312L243.757 234H242.733V225.584ZM253.845 232.336C254.09 232.336 254.293 232.421 254.453 232.592C254.613 232.752 254.693 232.955 254.693 233.2C254.693 233.328 254.671 233.467 254.629 233.616C254.597 233.765 254.543 233.936 254.469 234.128L253.797 236.336H253.029L253.573 234.016C253.402 233.963 253.263 233.867 253.157 233.728C253.05 233.579 252.997 233.403 252.997 233.2C252.997 232.955 253.077 232.752 253.237 232.592C253.397 232.421 253.599 232.336 253.845 232.336ZM265.407 225.792C266.186 225.792 266.879 225.968 267.487 226.32C268.106 226.661 268.586 227.147 268.927 227.776C269.268 228.395 269.439 229.104 269.439 229.904C269.439 230.725 269.258 231.456 268.895 232.096C268.543 232.725 268.047 233.216 267.407 233.568C266.767 233.92 266.031 234.096 265.199 234.096C263.802 234.096 262.719 233.605 261.951 232.624C261.183 231.643 260.799 230.288 260.799 228.56C260.799 226.757 261.14 225.376 261.823 224.416C262.516 223.456 263.594 222.805 265.055 222.464L268.831 221.6L269.023 222.64L265.471 223.456C264.266 223.723 263.38 224.197 262.815 224.88C262.25 225.552 261.94 226.549 261.887 227.872C262.228 227.221 262.703 226.715 263.311 226.352C263.919 225.979 264.618 225.792 265.407 225.792ZM265.231 233.152C265.818 233.152 266.34 233.019 266.799 232.752C267.268 232.475 267.631 232.091 267.887 231.6C268.154 231.109 268.287 230.555 268.287 229.936C268.287 229.317 268.159 228.773 267.903 228.304C267.647 227.835 267.284 227.472 266.815 227.216C266.356 226.949 265.828 226.816 265.231 226.816C264.634 226.816 264.1 226.949 263.631 227.216C263.172 227.472 262.81 227.835 262.543 228.304C262.287 228.773 262.159 229.317 262.159 229.936C262.159 230.555 262.287 231.109 262.543 231.6C262.81 232.091 263.178 232.475 263.647 232.752C264.116 233.019 264.644 233.152 265.231 233.152ZM279.234 230.144H272.194C272.258 231.019 272.594 231.728 273.202 232.272C273.81 232.805 274.578 233.072 275.506 233.072C276.028 233.072 276.508 232.981 276.946 232.8C277.383 232.608 277.762 232.331 278.082 231.968L278.722 232.704C278.348 233.152 277.879 233.493 277.314 233.728C276.759 233.963 276.146 234.08 275.474 234.08C274.61 234.08 273.842 233.899 273.17 233.536C272.508 233.163 271.991 232.651 271.618 232C271.244 231.349 271.058 230.613 271.058 229.792C271.058 228.971 271.234 228.235 271.586 227.584C271.948 226.933 272.439 226.427 273.058 226.064C273.687 225.701 274.391 225.52 275.17 225.52C275.948 225.52 276.647 225.701 277.266 226.064C277.884 226.427 278.37 226.933 278.722 227.584C279.074 228.224 279.25 228.96 279.25 229.792L279.234 230.144ZM275.17 226.496C274.359 226.496 273.676 226.757 273.122 227.28C272.578 227.792 272.268 228.464 272.194 229.296H278.162C278.087 228.464 277.772 227.792 277.218 227.28C276.674 226.757 275.991 226.496 275.17 226.496ZM287.309 226.592H284.125V234H282.989V226.592H279.805V225.584H287.309V226.592ZM292.033 234.08C291.223 234.08 290.492 233.899 289.841 233.536C289.191 233.163 288.679 232.651 288.305 232C287.932 231.349 287.745 230.613 287.745 229.792C287.745 228.971 287.932 228.235 288.305 227.584C288.679 226.933 289.191 226.427 289.841 226.064C290.492 225.701 291.223 225.52 292.033 225.52C292.844 225.52 293.575 225.701 294.225 226.064C294.876 226.427 295.383 226.933 295.745 227.584C296.119 228.235 296.305 228.971 296.305 229.792C296.305 230.613 296.119 231.349 295.745 232C295.383 232.651 294.876 233.163 294.225 233.536C293.575 233.899 292.844 234.08 292.033 234.08ZM292.033 233.072C292.631 233.072 293.164 232.939 293.633 232.672C294.113 232.395 294.487 232.005 294.753 231.504C295.02 231.003 295.153 230.432 295.153 229.792C295.153 229.152 295.02 228.581 294.753 228.08C294.487 227.579 294.113 227.195 293.633 226.928C293.164 226.651 292.631 226.512 292.033 226.512C291.436 226.512 290.897 226.651 290.417 226.928C289.948 227.195 289.575 227.579 289.297 228.08C289.031 228.581 288.897 229.152 288.897 229.792C288.897 230.432 289.031 231.003 289.297 231.504C289.575 232.005 289.948 232.395 290.417 232.672C290.897 232.939 291.436 233.072 292.033 233.072ZM298.733 225.584H299.869V229.312H305.165V225.584H306.301V234H305.165V230.288H299.869V234H298.733V225.584ZM312.426 225.52C313.525 225.52 314.367 225.797 314.954 226.352C315.541 226.896 315.834 227.707 315.834 228.784V234H314.746V232.688C314.49 233.125 314.111 233.467 313.61 233.712C313.119 233.957 312.533 234.08 311.85 234.08C310.911 234.08 310.165 233.856 309.61 233.408C309.055 232.96 308.778 232.368 308.778 231.632C308.778 230.917 309.034 230.341 309.546 229.904C310.069 229.467 310.895 229.248 312.026 229.248H314.698V228.736C314.698 228.011 314.495 227.461 314.09 227.088C313.685 226.704 313.093 226.512 312.314 226.512C311.781 226.512 311.269 226.603 310.778 226.784C310.287 226.955 309.866 227.195 309.514 227.504L309.002 226.656C309.429 226.293 309.941 226.016 310.538 225.824C311.135 225.621 311.765 225.52 312.426 225.52ZM312.026 233.184C312.666 233.184 313.215 233.04 313.674 232.752C314.133 232.453 314.474 232.027 314.698 231.472V230.096H312.058C310.618 230.096 309.898 230.597 309.898 231.6C309.898 232.091 310.085 232.48 310.458 232.768C310.831 233.045 311.354 233.184 312.026 233.184Z" fill="#333333"/>
</g>
<defs>
<filter id="filter0_d" x="0" y="0.938965" width="423" height="294.061" filterUnits="userSpaceOnUse" color-interpolation-filters="sRGB">
<feFlood flood-opacity="0" result="BackgroundImageFix"/>
<feColorMatrix in="SourceAlpha" type="matrix" values="0 0 0 0 0 0 0 0 0 0 0 0 0 0 0 0 0 0 127 0"/>
<feOffset dy="4"/>
<feGaussianBlur stdDeviation="2"/>
<feColorMatrix type="matrix" values="0 0 0 0 0 0 0 0 0 0 0 0 0 0 0 0 0 0 0.25 0"/>
<feBlend mode="normal" in2="BackgroundImageFix" result="effect1_dropShadow"/>
<feBlend mode="normal" in="SourceGraphic" in2="effect1_dropShadow" result="shape"/>
</filter>
</defs>
</svg>
