<svg width="418" height="291" viewBox="0 0 418 291" fill="none" xmlns="http://www.w3.org/2000/svg">
<g filter="url(#filter0_d)">
<rect x="4" y="0.0477295" width="410" height="282.615" rx="6" fill="#FEFEFE"/>
<path d="M179.966 119.536C174.014 119.536 168.734 118.16 164.126 115.408C159.582 112.592 155.998 108.56 153.374 103.312C150.814 98 149.534 91.696 149.534 84.4C149.534 77.104 150.814 70.832 153.374 65.584C155.998 60.272 159.582 56.24 164.126 53.488C168.734 50.672 174.014 49.264 179.966 49.264C185.918 49.264 191.166 50.672 195.71 53.488C200.318 56.24 203.902 60.272 206.462 65.584C209.086 70.832 210.398 77.104 210.398 84.4C210.398 91.696 209.086 98 206.462 103.312C203.902 108.56 200.318 112.592 195.71 115.408C191.166 118.16 185.918 119.536 179.966 119.536ZM179.966 101.392C185.086 101.392 187.646 95.728 187.646 84.4C187.646 73.072 185.086 67.408 179.966 67.408C174.846 67.408 172.286 73.072 172.286 84.4C172.286 95.728 174.846 101.392 179.966 101.392ZM252.793 77.392C257.977 78.672 261.945 81.008 264.697 84.4C267.513 87.728 268.921 91.76 268.921 96.496C268.921 100.528 267.801 104.304 265.561 107.824C263.385 111.28 259.993 114.096 255.385 116.272C250.777 118.448 245.049 119.536 238.201 119.536C233.465 119.536 228.729 119.024 223.993 118C219.321 116.976 215.225 115.472 211.705 113.488L219.385 96.784C222.137 98.384 225.081 99.6 228.217 100.432C231.417 101.264 234.489 101.68 237.433 101.68C240.057 101.68 242.169 101.232 243.769 100.336C245.369 99.44 246.169 98.16 246.169 96.496C246.169 93.424 243.513 91.888 238.201 91.888H229.273V77.968L239.161 67.888H215.161V50.8H265.273V64.72L252.793 77.392Z" fill="#EFF5F8"/>
<path d="M127.225 160.436H119.525L118.007 164H115.059L121.989 148.6H124.805L131.757 164H128.765L127.225 160.436ZM126.279 158.192L123.375 151.46L120.493 158.192H126.279ZM146.458 161.668V166.618H143.884V164H134.82V166.618H132.268V161.668H132.818C133.566 161.639 134.072 161.162 134.336 160.238C134.615 159.299 134.798 157.979 134.886 156.278L135.04 152.252H144.72V161.668H146.458ZM137.394 156.476C137.336 157.825 137.226 158.925 137.064 159.776C136.903 160.627 136.61 161.257 136.184 161.668H141.97V154.584H137.46L137.394 156.476ZM155.426 152.12C156.57 152.12 157.59 152.369 158.484 152.868C159.394 153.367 160.105 154.071 160.618 154.98C161.132 155.889 161.388 156.938 161.388 158.126C161.388 159.314 161.132 160.37 160.618 161.294C160.105 162.203 159.394 162.907 158.484 163.406C157.59 163.905 156.57 164.154 155.426 164.154C153.842 164.154 152.588 163.626 151.664 162.57V168.268H148.914V152.252H151.532V153.792C151.987 153.235 152.544 152.817 153.204 152.538C153.879 152.259 154.62 152.12 155.426 152.12ZM155.118 161.8C156.13 161.8 156.959 161.463 157.604 160.788C158.264 160.113 158.594 159.226 158.594 158.126C158.594 157.026 158.264 156.139 157.604 155.464C156.959 154.789 156.13 154.452 155.118 154.452C154.458 154.452 153.864 154.606 153.336 154.914C152.808 155.207 152.39 155.633 152.082 156.19C151.774 156.747 151.62 157.393 151.62 158.126C151.62 158.859 151.774 159.505 152.082 160.062C152.39 160.619 152.808 161.052 153.336 161.36C153.864 161.653 154.458 161.8 155.118 161.8ZM175.125 158.192C175.125 158.383 175.111 158.654 175.081 159.006H165.863C166.025 159.871 166.443 160.561 167.117 161.074C167.807 161.573 168.657 161.822 169.669 161.822C170.96 161.822 172.023 161.397 172.859 160.546L174.333 162.24C173.805 162.871 173.138 163.347 172.331 163.67C171.525 163.993 170.615 164.154 169.603 164.154C168.313 164.154 167.176 163.897 166.193 163.384C165.211 162.871 164.448 162.159 163.905 161.25C163.377 160.326 163.113 159.285 163.113 158.126C163.113 156.982 163.37 155.955 163.883 155.046C164.411 154.122 165.137 153.403 166.061 152.89C166.985 152.377 168.027 152.12 169.185 152.12C170.329 152.12 171.349 152.377 172.243 152.89C173.153 153.389 173.857 154.1 174.355 155.024C174.869 155.933 175.125 156.989 175.125 158.192ZM169.185 154.32C168.305 154.32 167.557 154.584 166.941 155.112C166.34 155.625 165.973 156.315 165.841 157.18H172.507C172.39 156.329 172.031 155.64 171.429 155.112C170.828 154.584 170.08 154.32 169.185 154.32ZM183.479 164.154C182.262 164.154 181.169 163.897 180.201 163.384C179.233 162.871 178.478 162.159 177.935 161.25C177.392 160.326 177.121 159.285 177.121 158.126C177.121 156.967 177.392 155.933 177.935 155.024C178.478 154.115 179.226 153.403 180.179 152.89C181.147 152.377 182.247 152.12 183.479 152.12C184.638 152.12 185.65 152.355 186.515 152.824C187.395 153.293 188.055 153.968 188.495 154.848L186.383 156.08C186.046 155.537 185.62 155.134 185.107 154.87C184.608 154.591 184.058 154.452 183.457 154.452C182.43 154.452 181.58 154.789 180.905 155.464C180.23 156.124 179.893 157.011 179.893 158.126C179.893 159.241 180.223 160.135 180.883 160.81C181.558 161.47 182.416 161.8 183.457 161.8C184.058 161.8 184.608 161.668 185.107 161.404C185.62 161.125 186.046 160.715 186.383 160.172L188.495 161.404C188.04 162.284 187.373 162.966 186.493 163.45C185.628 163.919 184.623 164.154 183.479 164.154ZM209.536 161.668V166.618H206.962V164H197.898V166.618H195.346V161.668H195.896C196.644 161.639 197.15 161.162 197.414 160.238C197.693 159.299 197.876 157.979 197.964 156.278L198.118 152.252H207.798V161.668H209.536ZM200.472 156.476C200.414 157.825 200.304 158.925 200.142 159.776C199.981 160.627 199.688 161.257 199.262 161.668H205.048V154.584H200.538L200.472 156.476ZM217.229 164.154C216.041 164.154 214.97 163.897 214.017 163.384C213.063 162.871 212.315 162.159 211.773 161.25C211.245 160.326 210.981 159.285 210.981 158.126C210.981 156.967 211.245 155.933 211.773 155.024C212.315 154.115 213.063 153.403 214.017 152.89C214.97 152.377 216.041 152.12 217.229 152.12C218.431 152.12 219.509 152.377 220.463 152.89C221.416 153.403 222.157 154.115 222.685 155.024C223.227 155.933 223.499 156.967 223.499 158.126C223.499 159.285 223.227 160.326 222.685 161.25C222.157 162.159 221.416 162.871 220.463 163.384C219.509 163.897 218.431 164.154 217.229 164.154ZM217.229 161.8C218.241 161.8 219.077 161.463 219.737 160.788C220.397 160.113 220.727 159.226 220.727 158.126C220.727 157.026 220.397 156.139 219.737 155.464C219.077 154.789 218.241 154.452 217.229 154.452C216.217 154.452 215.381 154.789 214.721 155.464C214.075 156.139 213.753 157.026 213.753 158.126C213.753 159.226 214.075 160.113 214.721 160.788C215.381 161.463 216.217 161.8 217.229 161.8ZM231.561 164.154C230.344 164.154 229.251 163.897 228.283 163.384C227.315 162.871 226.56 162.159 226.017 161.25C225.475 160.326 225.203 159.285 225.203 158.126C225.203 156.967 225.475 155.933 226.017 155.024C226.56 154.115 227.308 153.403 228.261 152.89C229.229 152.377 230.329 152.12 231.561 152.12C232.72 152.12 233.732 152.355 234.597 152.824C235.477 153.293 236.137 153.968 236.577 154.848L234.465 156.08C234.128 155.537 233.703 155.134 233.189 154.87C232.691 154.591 232.141 154.452 231.539 154.452C230.513 154.452 229.662 154.789 228.987 155.464C228.313 156.124 227.975 157.011 227.975 158.126C227.975 159.241 228.305 160.135 228.965 160.81C229.64 161.47 230.498 161.8 231.539 161.8C232.141 161.8 232.691 161.668 233.189 161.404C233.703 161.125 234.128 160.715 234.465 160.172L236.577 161.404C236.123 162.284 235.455 162.966 234.575 163.45C233.71 163.919 232.705 164.154 231.561 164.154ZM248.197 154.584H244.083V164H241.333V154.584H237.197V152.252H248.197V154.584ZM254.57 152.12C256.3 152.12 257.62 152.538 258.53 153.374C259.454 154.195 259.916 155.442 259.916 157.114V164H257.32V162.57C256.982 163.083 256.498 163.479 255.868 163.758C255.252 164.022 254.504 164.154 253.624 164.154C252.744 164.154 251.974 164.007 251.314 163.714C250.654 163.406 250.14 162.988 249.774 162.46C249.422 161.917 249.246 161.309 249.246 160.634C249.246 159.578 249.634 158.735 250.412 158.104C251.204 157.459 252.443 157.136 254.13 157.136H257.166V156.96C257.166 156.139 256.916 155.508 256.418 155.068C255.934 154.628 255.208 154.408 254.24 154.408C253.58 154.408 252.927 154.511 252.282 154.716C251.651 154.921 251.116 155.207 250.676 155.574L249.598 153.572C250.214 153.103 250.954 152.743 251.82 152.494C252.685 152.245 253.602 152.12 254.57 152.12ZM254.196 162.152C254.885 162.152 255.494 161.998 256.022 161.69C256.564 161.367 256.946 160.913 257.166 160.326V158.962H254.328C252.744 158.962 251.952 159.483 251.952 160.524C251.952 161.023 252.15 161.419 252.546 161.712C252.942 162.005 253.492 162.152 254.196 162.152ZM271.833 157.884C273.285 158.324 274.011 159.263 274.011 160.7C274.011 161.756 273.615 162.57 272.823 163.142C272.031 163.714 270.857 164 269.303 164H263.319V152.252H269.061C270.498 152.252 271.62 152.516 272.427 153.044C273.233 153.572 273.637 154.32 273.637 155.288C273.637 155.889 273.475 156.41 273.153 156.85C272.845 157.29 272.405 157.635 271.833 157.884ZM265.937 157.158H268.819C270.241 157.158 270.953 156.667 270.953 155.684C270.953 154.731 270.241 154.254 268.819 154.254H265.937V157.158ZM269.083 161.998C270.593 161.998 271.349 161.507 271.349 160.524C271.349 160.011 271.173 159.629 270.821 159.38C270.469 159.116 269.919 158.984 269.171 158.984H265.937V161.998H269.083ZM281.824 159.292H279.69V164H276.94V152.252H279.69V157.004H281.89L285.366 152.252H288.314L284.046 157.906L288.6 164H285.366L281.824 159.292ZM290.539 152.252H293.289V159.996L299.779 152.252H302.287V164H299.537V156.256L293.069 164H290.539V152.252Z" fill="#333333"/>
<path d="M114.674 202.144C115.41 202.325 115.986 202.656 116.402 203.136C116.829 203.616 117.042 204.192 117.042 204.864C117.042 205.515 116.839 206.085 116.434 206.576C116.029 207.067 115.49 207.445 114.818 207.712C114.146 207.968 113.415 208.096 112.626 208.096C111.879 208.096 111.143 207.979 110.418 207.744C109.703 207.499 109.058 207.136 108.482 206.656L108.914 205.808C109.405 206.224 109.965 206.544 110.594 206.768C111.223 206.981 111.858 207.088 112.498 207.088C113.106 207.088 113.666 206.992 114.178 206.8C114.69 206.608 115.095 206.336 115.394 205.984C115.703 205.621 115.858 205.195 115.858 204.704C115.858 204.053 115.602 203.552 115.09 203.2C114.578 202.848 113.858 202.672 112.93 202.672H110.53V201.712H112.866C113.655 201.712 114.269 201.547 114.706 201.216C115.154 200.875 115.378 200.405 115.378 199.808C115.378 199.147 115.095 198.629 114.53 198.256C113.965 197.872 113.255 197.68 112.402 197.68C111.869 197.68 111.33 197.76 110.786 197.92C110.242 198.069 109.725 198.299 109.234 198.608L108.834 197.632C109.943 196.971 111.143 196.64 112.434 196.64C113.191 196.64 113.885 196.763 114.514 197.008C115.143 197.253 115.639 197.605 116.002 198.064C116.375 198.523 116.562 199.061 116.562 199.68C116.562 200.277 116.397 200.795 116.066 201.232C115.735 201.659 115.271 201.963 114.674 202.144ZM125.07 203.648C126.211 203.915 126.782 204.603 126.782 205.712C126.782 206.448 126.51 207.013 125.966 207.408C125.422 207.803 124.611 208 123.534 208H119.71V199.584H123.422C124.382 199.584 125.134 199.771 125.678 200.144C126.222 200.517 126.494 201.051 126.494 201.744C126.494 202.203 126.366 202.597 126.11 202.928C125.864 203.248 125.518 203.488 125.07 203.648ZM120.814 203.328H123.342C123.992 203.328 124.488 203.205 124.83 202.96C125.182 202.715 125.358 202.357 125.358 201.888C125.358 201.419 125.182 201.067 124.83 200.832C124.488 200.597 123.992 200.48 123.342 200.48H120.814V203.328ZM123.486 207.104C124.211 207.104 124.755 206.987 125.118 206.752C125.48 206.517 125.662 206.149 125.662 205.648C125.662 205.147 125.496 204.779 125.166 204.544C124.835 204.299 124.312 204.176 123.598 204.176H120.814V207.104H123.486ZM132.916 208.08C132.105 208.08 131.375 207.899 130.724 207.536C130.073 207.163 129.561 206.651 129.188 206C128.815 205.349 128.628 204.613 128.628 203.792C128.628 202.971 128.815 202.235 129.188 201.584C129.561 200.933 130.073 200.427 130.724 200.064C131.375 199.701 132.105 199.52 132.916 199.52C133.727 199.52 134.457 199.701 135.108 200.064C135.759 200.427 136.265 200.933 136.628 201.584C137.001 202.235 137.188 202.971 137.188 203.792C137.188 204.613 137.001 205.349 136.628 206C136.265 206.651 135.759 207.163 135.108 207.536C134.457 207.899 133.727 208.08 132.916 208.08ZM132.916 207.072C133.513 207.072 134.047 206.939 134.516 206.672C134.996 206.395 135.369 206.005 135.636 205.504C135.903 205.003 136.036 204.432 136.036 203.792C136.036 203.152 135.903 202.581 135.636 202.08C135.369 201.579 134.996 201.195 134.516 200.928C134.047 200.651 133.513 200.512 132.916 200.512C132.319 200.512 131.78 200.651 131.3 200.928C130.831 201.195 130.457 201.579 130.18 202.08C129.913 202.581 129.78 203.152 129.78 203.792C129.78 204.432 129.913 205.003 130.18 205.504C130.457 206.005 130.831 206.395 131.3 206.672C131.78 206.939 132.319 207.072 132.916 207.072ZM139.616 199.584H140.752V203.312H146.048V199.584H147.184V208H146.048V204.288H140.752V208H139.616V199.584ZM150.413 199.584H151.549V206.272L157.165 199.584H158.173V208H157.037V201.312L151.437 208H150.413V199.584ZM167.349 200.592H164.165V208H163.029V200.592H159.845V199.584H167.349V200.592ZM175.96 204.144H168.92C168.984 205.019 169.32 205.728 169.928 206.272C170.536 206.805 171.304 207.072 172.232 207.072C172.755 207.072 173.235 206.981 173.672 206.8C174.11 206.608 174.488 206.331 174.808 205.968L175.448 206.704C175.075 207.152 174.606 207.493 174.04 207.728C173.486 207.963 172.872 208.08 172.2 208.08C171.336 208.08 170.568 207.899 169.896 207.536C169.235 207.163 168.718 206.651 168.344 206C167.971 205.349 167.784 204.613 167.784 203.792C167.784 202.971 167.96 202.235 168.312 201.584C168.675 200.933 169.166 200.427 169.784 200.064C170.414 199.701 171.118 199.52 171.896 199.52C172.675 199.52 173.374 199.701 173.992 200.064C174.611 200.427 175.096 200.933 175.448 201.584C175.8 202.224 175.976 202.96 175.976 203.792L175.96 204.144ZM171.896 200.496C171.086 200.496 170.403 200.757 169.848 201.28C169.304 201.792 168.995 202.464 168.92 203.296H174.888C174.814 202.464 174.499 201.792 173.944 201.28C173.4 200.757 172.718 200.496 171.896 200.496ZM178.571 208.08C178.336 208.08 178.134 207.995 177.963 207.824C177.803 207.653 177.723 207.445 177.723 207.2C177.723 206.955 177.803 206.752 177.963 206.592C178.134 206.421 178.336 206.336 178.571 206.336C178.806 206.336 179.008 206.421 179.179 206.592C179.35 206.752 179.435 206.955 179.435 207.2C179.435 207.445 179.35 207.653 179.179 207.824C179.008 207.995 178.806 208.08 178.571 208.08ZM197.973 196.8V208H196.837V199.04L192.437 206.576H191.877L187.477 199.088V208H186.341V196.8H187.317L192.181 205.104L196.997 196.8H197.973ZM205.011 202.56C206.067 202.571 206.873 202.805 207.427 203.264C207.982 203.723 208.259 204.384 208.259 205.248C208.259 206.144 207.961 206.832 207.363 207.312C206.766 207.792 205.913 208.027 204.803 208.016L201.475 208V199.584H202.611V202.528L205.011 202.56ZM209.667 199.584H210.803V208H209.667V199.584ZM204.739 207.152C205.518 207.163 206.105 207.008 206.499 206.688C206.905 206.357 207.107 205.877 207.107 205.248C207.107 204.629 206.91 204.171 206.515 203.872C206.121 203.573 205.529 203.419 204.739 203.408L202.611 203.376V207.12L204.739 207.152ZM226.749 199.52C227.538 199.52 228.253 199.701 228.893 200.064C229.533 200.416 230.034 200.917 230.397 201.568C230.76 202.219 230.941 202.96 230.941 203.792C230.941 204.635 230.76 205.381 230.397 206.032C230.034 206.683 229.533 207.189 228.893 207.552C228.264 207.904 227.549 208.08 226.749 208.08C226.066 208.08 225.448 207.941 224.893 207.664C224.349 207.376 223.901 206.96 223.549 206.416V211.104H222.413V199.584H223.501V201.248C223.842 200.693 224.29 200.267 224.845 199.968C225.41 199.669 226.045 199.52 226.749 199.52ZM226.669 207.072C227.256 207.072 227.789 206.939 228.269 206.672C228.749 206.395 229.122 206.005 229.389 205.504C229.666 205.003 229.805 204.432 229.805 203.792C229.805 203.152 229.666 202.587 229.389 202.096C229.122 201.595 228.749 201.205 228.269 200.928C227.789 200.651 227.256 200.512 226.669 200.512C226.072 200.512 225.533 200.651 225.053 200.928C224.584 201.205 224.21 201.595 223.933 202.096C223.666 202.587 223.533 203.152 223.533 203.792C223.533 204.432 223.666 205.003 223.933 205.504C224.21 206.005 224.584 206.395 225.053 206.672C225.533 206.939 226.072 207.072 226.669 207.072ZM236.231 199.52C237.329 199.52 238.172 199.797 238.759 200.352C239.345 200.896 239.639 201.707 239.639 202.784V208H238.551V206.688C238.295 207.125 237.916 207.467 237.415 207.712C236.924 207.957 236.337 208.08 235.655 208.08C234.716 208.08 233.969 207.856 233.415 207.408C232.86 206.96 232.583 206.368 232.583 205.632C232.583 204.917 232.839 204.341 233.351 203.904C233.873 203.467 234.7 203.248 235.831 203.248H238.503V202.736C238.503 202.011 238.3 201.461 237.895 201.088C237.489 200.704 236.897 200.512 236.119 200.512C235.585 200.512 235.073 200.603 234.583 200.784C234.092 200.955 233.671 201.195 233.319 201.504L232.807 200.656C233.233 200.293 233.745 200.016 234.343 199.824C234.94 199.621 235.569 199.52 236.231 199.52ZM235.831 207.184C236.471 207.184 237.02 207.04 237.479 206.752C237.937 206.453 238.279 206.027 238.503 205.472V204.096H235.863C234.423 204.096 233.703 204.597 233.703 205.6C233.703 206.091 233.889 206.48 234.263 206.768C234.636 207.045 235.159 207.184 235.831 207.184ZM246.183 208.08C245.351 208.08 244.604 207.899 243.943 207.536C243.292 207.173 242.78 206.667 242.407 206.016C242.034 205.355 241.847 204.613 241.847 203.792C241.847 202.971 242.034 202.235 242.407 201.584C242.78 200.933 243.292 200.427 243.943 200.064C244.604 199.701 245.351 199.52 246.183 199.52C246.908 199.52 247.554 199.664 248.119 199.952C248.695 200.229 249.148 200.64 249.479 201.184L248.631 201.76C248.354 201.344 248.002 201.035 247.575 200.832C247.148 200.619 246.684 200.512 246.183 200.512C245.575 200.512 245.026 200.651 244.535 200.928C244.055 201.195 243.676 201.579 243.399 202.08C243.132 202.581 242.999 203.152 242.999 203.792C242.999 204.443 243.132 205.019 243.399 205.52C243.676 206.011 244.055 206.395 244.535 206.672C245.026 206.939 245.575 207.072 246.183 207.072C246.684 207.072 247.148 206.971 247.575 206.768C248.002 206.565 248.354 206.256 248.631 205.84L249.479 206.416C249.148 206.96 248.695 207.376 248.119 207.664C247.543 207.941 246.898 208.08 246.183 208.08ZM258.031 199.584V208H256.895V204.496C255.924 204.923 254.969 205.136 254.031 205.136C253.017 205.136 252.228 204.907 251.663 204.448C251.097 203.979 250.815 203.28 250.815 202.352V199.584H251.951V202.288C251.951 202.917 252.153 203.397 252.559 203.728C252.964 204.048 253.524 204.208 254.239 204.208C255.028 204.208 255.913 204 256.895 203.584V199.584H258.031ZM261.257 199.584H262.393V206.272L268.009 199.584H269.017V208H267.881V201.312L262.281 208H261.257V199.584ZM278.192 200.592H275.008V208H273.872V200.592H270.688V199.584H278.192V200.592ZM282.731 199.52C283.829 199.52 284.672 199.797 285.259 200.352C285.845 200.896 286.139 201.707 286.139 202.784V208H285.051V206.688C284.795 207.125 284.416 207.467 283.915 207.712C283.424 207.957 282.837 208.08 282.155 208.08C281.216 208.08 280.469 207.856 279.915 207.408C279.36 206.96 279.083 206.368 279.083 205.632C279.083 204.917 279.339 204.341 279.851 203.904C280.373 203.467 281.2 203.248 282.331 203.248H285.003V202.736C285.003 202.011 284.8 201.461 284.395 201.088C283.989 200.704 283.397 200.512 282.619 200.512C282.085 200.512 281.573 200.603 281.083 200.784C280.592 200.955 280.171 201.195 279.819 201.504L279.307 200.656C279.733 200.293 280.245 200.016 280.843 199.824C281.44 199.621 282.069 199.52 282.731 199.52ZM282.331 207.184C282.971 207.184 283.52 207.04 283.979 206.752C284.437 206.453 284.779 206.027 285.003 205.472V204.096H282.363C280.923 204.096 280.203 204.597 280.203 205.6C280.203 206.091 280.389 206.48 280.763 206.768C281.136 207.045 281.659 207.184 282.331 207.184ZM296.523 204.144H289.483C289.547 205.019 289.883 205.728 290.491 206.272C291.099 206.805 291.867 207.072 292.795 207.072C293.318 207.072 293.798 206.981 294.235 206.8C294.672 206.608 295.051 206.331 295.371 205.968L296.011 206.704C295.638 207.152 295.168 207.493 294.603 207.728C294.048 207.963 293.435 208.08 292.763 208.08C291.899 208.08 291.131 207.899 290.459 207.536C289.798 207.163 289.28 206.651 288.907 206C288.534 205.349 288.347 204.613 288.347 203.792C288.347 202.971 288.523 202.235 288.875 201.584C289.238 200.933 289.728 200.427 290.347 200.064C290.976 199.701 291.68 199.52 292.459 199.52C293.238 199.52 293.936 199.701 294.555 200.064C295.174 200.427 295.659 200.933 296.011 201.584C296.363 202.224 296.539 202.96 296.539 203.792L296.523 204.144ZM292.459 200.496C291.648 200.496 290.966 200.757 290.411 201.28C289.867 201.792 289.558 202.464 289.483 203.296H295.451C295.376 202.464 295.062 201.792 294.507 201.28C293.963 200.757 293.28 200.496 292.459 200.496ZM308.462 199.584V208H307.422V201.344L304.014 206.976H303.502L300.094 201.328V208H299.054V199.584H300.206L303.774 205.648L307.406 199.584H308.462ZM131.113 230.08C130.281 230.08 129.534 229.899 128.873 229.536C128.222 229.173 127.71 228.667 127.337 228.016C126.963 227.355 126.777 226.613 126.777 225.792C126.777 224.971 126.963 224.235 127.337 223.584C127.71 222.933 128.222 222.427 128.873 222.064C129.534 221.701 130.281 221.52 131.113 221.52C131.838 221.52 132.483 221.664 133.049 221.952C133.625 222.229 134.078 222.64 134.409 223.184L133.561 223.76C133.283 223.344 132.931 223.035 132.505 222.832C132.078 222.619 131.614 222.512 131.113 222.512C130.505 222.512 129.955 222.651 129.465 222.928C128.985 223.195 128.606 223.579 128.329 224.08C128.062 224.581 127.929 225.152 127.929 225.792C127.929 226.443 128.062 227.019 128.329 227.52C128.606 228.011 128.985 228.395 129.465 228.672C129.955 228.939 130.505 229.072 131.113 229.072C131.614 229.072 132.078 228.971 132.505 228.768C132.931 228.565 133.283 228.256 133.561 227.84L134.409 228.416C134.078 228.96 133.625 229.376 133.049 229.664C132.473 229.941 131.827 230.08 131.113 230.08ZM142.372 222.592H139.188V230H138.052V222.592H134.868V221.584H142.372V222.592ZM147.096 230.08C146.285 230.08 145.554 229.899 144.904 229.536C144.253 229.163 143.741 228.651 143.368 228C142.994 227.349 142.808 226.613 142.808 225.792C142.808 224.971 142.994 224.235 143.368 223.584C143.741 222.933 144.253 222.427 144.904 222.064C145.554 221.701 146.285 221.52 147.096 221.52C147.906 221.52 148.637 221.701 149.288 222.064C149.938 222.427 150.445 222.933 150.808 223.584C151.181 224.235 151.368 224.971 151.368 225.792C151.368 226.613 151.181 227.349 150.808 228C150.445 228.651 149.938 229.163 149.288 229.536C148.637 229.899 147.906 230.08 147.096 230.08ZM147.096 229.072C147.693 229.072 148.226 228.939 148.696 228.672C149.176 228.395 149.549 228.005 149.816 227.504C150.082 227.003 150.216 226.432 150.216 225.792C150.216 225.152 150.082 224.581 149.816 224.08C149.549 223.579 149.176 223.195 148.696 222.928C148.226 222.651 147.693 222.512 147.096 222.512C146.498 222.512 145.96 222.651 145.48 222.928C145.01 223.195 144.637 223.579 144.36 224.08C144.093 224.581 143.96 225.152 143.96 225.792C143.96 226.432 144.093 227.003 144.36 227.504C144.637 228.005 145.01 228.395 145.48 228.672C145.96 228.939 146.498 229.072 147.096 229.072ZM153.796 221.584H154.932V228.272L160.548 221.584H161.556V230H160.42V223.312L154.82 230H153.796V221.584ZM174.219 221.584V230H173.179V223.344L169.771 228.976H169.259L165.851 223.328V230H164.811V221.584H165.963L169.531 227.648L173.163 221.584H174.219ZM180.924 230.08C180.113 230.08 179.383 229.899 178.732 229.536C178.081 229.163 177.569 228.651 177.196 228C176.823 227.349 176.636 226.613 176.636 225.792C176.636 224.971 176.823 224.235 177.196 223.584C177.569 222.933 178.081 222.427 178.732 222.064C179.383 221.701 180.113 221.52 180.924 221.52C181.735 221.52 182.465 221.701 183.116 222.064C183.767 222.427 184.273 222.933 184.636 223.584C185.009 224.235 185.196 224.971 185.196 225.792C185.196 226.613 185.009 227.349 184.636 228C184.273 228.651 183.767 229.163 183.116 229.536C182.465 229.899 181.735 230.08 180.924 230.08ZM180.924 229.072C181.521 229.072 182.055 228.939 182.524 228.672C183.004 228.395 183.377 228.005 183.644 227.504C183.911 227.003 184.044 226.432 184.044 225.792C184.044 225.152 183.911 224.581 183.644 224.08C183.377 223.579 183.004 223.195 182.524 222.928C182.055 222.651 181.521 222.512 180.924 222.512C180.327 222.512 179.788 222.651 179.308 222.928C178.839 223.195 178.465 223.579 178.188 224.08C177.921 224.581 177.788 225.152 177.788 225.792C177.788 226.432 177.921 227.003 178.188 227.504C178.465 228.005 178.839 228.395 179.308 228.672C179.788 228.939 180.327 229.072 180.924 229.072ZM191.144 230.08C190.312 230.08 189.565 229.899 188.904 229.536C188.253 229.173 187.741 228.667 187.368 228.016C186.994 227.355 186.808 226.613 186.808 225.792C186.808 224.971 186.994 224.235 187.368 223.584C187.741 222.933 188.253 222.427 188.904 222.064C189.565 221.701 190.312 221.52 191.144 221.52C191.869 221.52 192.514 221.664 193.08 221.952C193.656 222.229 194.109 222.64 194.44 223.184L193.592 223.76C193.314 223.344 192.962 223.035 192.536 222.832C192.109 222.619 191.645 222.512 191.144 222.512C190.536 222.512 189.986 222.651 189.496 222.928C189.016 223.195 188.637 223.579 188.36 224.08C188.093 224.581 187.96 225.152 187.96 225.792C187.96 226.443 188.093 227.019 188.36 227.52C188.637 228.011 189.016 228.395 189.496 228.672C189.986 228.939 190.536 229.072 191.144 229.072C191.645 229.072 192.109 228.971 192.536 228.768C192.962 228.565 193.314 228.256 193.592 227.84L194.44 228.416C194.109 228.96 193.656 229.376 193.08 229.664C192.504 229.941 191.858 230.08 191.144 230.08ZM202.403 222.592H199.219V230H198.083V222.592H194.899V221.584H202.403V222.592ZM207.662 224.56C208.718 224.571 209.518 224.805 210.062 225.264C210.616 225.723 210.894 226.384 210.894 227.248C210.894 228.144 210.595 228.832 209.998 229.312C209.411 229.792 208.558 230.027 207.438 230.016L204.046 230V221.584H205.182V224.528L207.662 224.56ZM207.374 229.152C208.152 229.163 208.739 229.008 209.134 228.688C209.539 228.357 209.742 227.877 209.742 227.248C209.742 226.629 209.544 226.171 209.15 225.872C208.755 225.573 208.163 225.419 207.374 225.408L205.182 225.376V229.12L207.374 229.152ZM225.457 229.008V232.032H224.385V230H216.849V232.032H215.777V229.008H216.257C216.822 228.976 217.206 228.56 217.409 227.76C217.611 226.96 217.75 225.84 217.825 224.4L217.937 221.584H224.145V229.008H225.457ZM218.865 224.464C218.811 225.659 218.71 226.645 218.561 227.424C218.411 228.192 218.145 228.72 217.761 229.008H223.009V222.592H218.961L218.865 224.464ZM231.143 230.08C230.332 230.08 229.601 229.899 228.951 229.536C228.3 229.163 227.788 228.651 227.415 228C227.041 227.349 226.855 226.613 226.855 225.792C226.855 224.971 227.041 224.235 227.415 223.584C227.788 222.933 228.3 222.427 228.951 222.064C229.601 221.701 230.332 221.52 231.143 221.52C231.953 221.52 232.684 221.701 233.335 222.064C233.985 222.427 234.492 222.933 234.855 223.584C235.228 224.235 235.415 224.971 235.415 225.792C235.415 226.613 235.228 227.349 234.855 228C234.492 228.651 233.985 229.163 233.335 229.536C232.684 229.899 231.953 230.08 231.143 230.08ZM231.143 229.072C231.74 229.072 232.273 228.939 232.743 228.672C233.223 228.395 233.596 228.005 233.863 227.504C234.129 227.003 234.263 226.432 234.263 225.792C234.263 225.152 234.129 224.581 233.863 224.08C233.596 223.579 233.223 223.195 232.743 222.928C232.273 222.651 231.74 222.512 231.143 222.512C230.545 222.512 230.007 222.651 229.527 222.928C229.057 223.195 228.684 223.579 228.407 224.08C228.14 224.581 228.007 225.152 228.007 225.792C228.007 226.432 228.14 227.003 228.407 227.504C228.684 228.005 229.057 228.395 229.527 228.672C230.007 228.939 230.545 229.072 231.143 229.072ZM241.363 230.08C240.531 230.08 239.784 229.899 239.123 229.536C238.472 229.173 237.96 228.667 237.587 228.016C237.213 227.355 237.027 226.613 237.027 225.792C237.027 224.971 237.213 224.235 237.587 223.584C237.96 222.933 238.472 222.427 239.123 222.064C239.784 221.701 240.531 221.52 241.363 221.52C242.088 221.52 242.733 221.664 243.299 221.952C243.875 222.229 244.328 222.64 244.659 223.184L243.811 223.76C243.533 223.344 243.181 223.035 242.755 222.832C242.328 222.619 241.864 222.512 241.363 222.512C240.755 222.512 240.205 222.651 239.715 222.928C239.235 223.195 238.856 223.579 238.579 224.08C238.312 224.581 238.179 225.152 238.179 225.792C238.179 226.443 238.312 227.019 238.579 227.52C238.856 228.011 239.235 228.395 239.715 228.672C240.205 228.939 240.755 229.072 241.363 229.072C241.864 229.072 242.328 228.971 242.755 228.768C243.181 228.565 243.533 228.256 243.811 227.84L244.659 228.416C244.328 228.96 243.875 229.376 243.299 229.664C242.723 229.941 242.077 230.08 241.363 230.08ZM252.622 222.592H249.438V230H248.302V222.592H245.118V221.584H252.622V222.592ZM257.16 221.52C258.259 221.52 259.102 221.797 259.688 222.352C260.275 222.896 260.568 223.707 260.568 224.784V230H259.48V228.688C259.224 229.125 258.846 229.467 258.344 229.712C257.854 229.957 257.267 230.08 256.584 230.08C255.646 230.08 254.899 229.856 254.344 229.408C253.79 228.96 253.512 228.368 253.512 227.632C253.512 226.917 253.768 226.341 254.28 225.904C254.803 225.467 255.63 225.248 256.76 225.248H259.432V224.736C259.432 224.011 259.23 223.461 258.824 223.088C258.419 222.704 257.827 222.512 257.048 222.512C256.515 222.512 256.003 222.603 255.512 222.784C255.022 222.955 254.6 223.195 254.248 223.504L253.736 222.656C254.163 222.293 254.675 222.016 255.272 221.824C255.87 221.621 256.499 221.52 257.16 221.52ZM256.76 229.184C257.4 229.184 257.95 229.04 258.408 228.752C258.867 228.453 259.208 228.027 259.432 227.472V226.096H256.792C255.352 226.096 254.632 226.597 254.632 227.6C254.632 228.091 254.819 228.48 255.192 228.768C255.566 229.045 256.088 229.184 256.76 229.184ZM268.953 225.648C270.094 225.915 270.665 226.603 270.665 227.712C270.665 228.448 270.393 229.013 269.849 229.408C269.305 229.803 268.494 230 267.417 230H263.593V221.584H267.305C268.265 221.584 269.017 221.771 269.561 222.144C270.105 222.517 270.377 223.051 270.377 223.744C270.377 224.203 270.249 224.597 269.993 224.928C269.747 225.248 269.401 225.488 268.953 225.648ZM264.697 225.328H267.225C267.875 225.328 268.371 225.205 268.713 224.96C269.065 224.715 269.241 224.357 269.241 223.888C269.241 223.419 269.065 223.067 268.713 222.832C268.371 222.597 267.875 222.48 267.225 222.48H264.697V225.328ZM267.369 229.104C268.094 229.104 268.638 228.987 269.001 228.752C269.363 228.517 269.545 228.149 269.545 227.648C269.545 227.147 269.379 226.779 269.049 226.544C268.718 226.299 268.195 226.176 267.481 226.176H264.697V229.104H267.369ZM276.383 226.256H274.463V230H273.327V221.584H274.463V225.28H276.399L279.359 221.584H280.591L277.279 225.664L280.831 230H279.487L276.383 226.256ZM282.624 221.584H283.76V228.272L289.376 221.584H290.384V230H289.248V223.312L283.648 230H282.624V221.584Z" fill="#333333"/>
</g>
<defs>
<filter id="filter0_d" x="0" y="0.0477295" width="418" height="290.615" filterUnits="userSpaceOnUse" color-interpolation-filters="sRGB">
<feFlood flood-opacity="0" result="BackgroundImageFix"/>
<feColorMatrix in="SourceAlpha" type="matrix" values="0 0 0 0 0 0 0 0 0 0 0 0 0 0 0 0 0 0 127 0"/>
<feOffset dy="4"/>
<feGaussianBlur stdDeviation="2"/>
<feColorMatrix type="matrix" values="0 0 0 0 0 0 0 0 0 0 0 0 0 0 0 0 0 0 0.25 0"/>
<feBlend mode="normal" in2="BackgroundImageFix" result="effect1_dropShadow"/>
<feBlend mode="normal" in="SourceGraphic" in2="effect1_dropShadow" result="shape"/>
</filter>
</defs>
</svg>
